<?xml version="1.0" encoding="UTF-8"?>
<?xml-stylesheet href="https://cdnjs.cloudflare.com/ajax/libs/font-awesome/6.5.1/css/all.min.css" type="text/css"?>
<svg aria-roledescription="er" role="graphics-document document" viewBox="0 -62 399.61328125 668" style="max-width: 100%; max-height: 100%; background: white; color: rgb(51, 51, 51);" xmlns="http://www.w3.org/2000/svg" width="100%" id="mermaid-image-editor"><style>#mermaid-image-editor{font-family:"trebuchet ms",verdana,arial,sans-serif;font-size:16px;fill:#333;}#mermaid-image-editor .error-icon{fill:#552222;}#mermaid-image-editor .error-text{fill:#552222;stroke:#552222;}#mermaid-image-editor .edge-thickness-normal{stroke-width:1px;}#mermaid-image-editor .edge-thickness-thick{stroke-width:3.5px;}#mermaid-image-editor .edge-pattern-solid{stroke-dasharray:0;}#mermaid-image-editor .edge-thickness-invisible{stroke-width:0;fill:none;}#mermaid-image-editor .edge-pattern-dashed{stroke-dasharray:3;}#mermaid-image-editor .edge-pattern-dotted{stroke-dasharray:2;}#mermaid-image-editor .marker{fill:#333333;stroke:#333333;}#mermaid-image-editor .marker.cross{stroke:#333333;}#mermaid-image-editor svg{font-family:"trebuchet ms",verdana,arial,sans-serif;font-size:16px;}#mermaid-image-editor p{margin:0;}#mermaid-image-editor .entityBox{fill:#ECECFF;stroke:#9370DB;}#mermaid-image-editor .attributeBoxOdd{fill:#ffffff;stroke:#9370DB;}#mermaid-image-editor .attributeBoxEven{fill:#f2f2f2;stroke:#9370DB;}#mermaid-image-editor .relationshipLabelBox{fill:hsl(80, 100%, 96.2745098039%);opacity:0.7;background-color:hsl(80, 100%, 96.2745098039%);}#mermaid-image-editor .relationshipLabelBox rect{opacity:0.5;}#mermaid-image-editor .relationshipLine{stroke:#333333;}#mermaid-image-editor .entityTitleText{text-anchor:middle;font-size:18px;fill:#333;}#mermaid-image-editor #MD_PARENT_START{fill:#f5f5f5!important;stroke:#333333!important;stroke-width:1;}#mermaid-image-editor #MD_PARENT_END{fill:#f5f5f5!important;stroke:#333333!important;stroke-width:1;}#mermaid-image-editor :root{--mermaid-font-family:"trebuchet ms",verdana,arial,sans-serif;}</style><g></g><defs><marker orient="auto" markerHeight="240" markerWidth="190" refY="7" refX="0" id="MD_PARENT_START"><path d="M 18,7 L9,13 L1,7 L9,1 Z"></path></marker></defs><defs><marker orient="auto" markerHeight="28" markerWidth="20" refY="7" refX="19" id="MD_PARENT_END"><path d="M 18,7 L9,13 L1,7 L9,1 Z"></path></marker></defs><defs><marker orient="auto" markerHeight="18" markerWidth="18" refY="9" refX="0" id="ONLY_ONE_START"><path d="M9,0 L9,18 M15,0 L15,18" fill="none" stroke="gray"></path></marker></defs><defs><marker orient="auto" markerHeight="18" markerWidth="18" refY="9" refX="18" id="ONLY_ONE_END"><path d="M3,0 L3,18 M9,0 L9,18" fill="none" stroke="gray"></path></marker></defs><defs><marker orient="auto" markerHeight="18" markerWidth="30" refY="9" refX="0" id="ZERO_OR_ONE_START"><circle r="6" cy="9" cx="21" fill="white" stroke="gray"></circle><path d="M9,0 L9,18" fill="none" stroke="gray"></path></marker></defs><defs><marker orient="auto" markerHeight="18" markerWidth="30" refY="9" refX="30" id="ZERO_OR_ONE_END"><circle r="6" cy="9" cx="9" fill="white" stroke="gray"></circle><path d="M21,0 L21,18" fill="none" stroke="gray"></path></marker></defs><defs><marker orient="auto" markerHeight="36" markerWidth="45" refY="18" refX="18" id="ONE_OR_MORE_START"><path d="M0,18 Q 18,0 36,18 Q 18,36 0,18 M42,9 L42,27" fill="none" stroke="gray"></path></marker></defs><defs><marker orient="auto" markerHeight="36" markerWidth="45" refY="18" refX="27" id="ONE_OR_MORE_END"><path d="M3,9 L3,27 M9,18 Q27,0 45,18 Q27,36 9,18" fill="none" stroke="gray"></path></marker></defs><defs><marker orient="auto" markerHeight="36" markerWidth="57" refY="18" refX="18" id="ZERO_OR_MORE_START"><circle r="6" cy="18" cx="48" fill="white" stroke="gray"></circle><path d="M0,18 Q18,0 36,18 Q18,36 0,18" fill="none" stroke="gray"></path></marker></defs><defs><marker orient="auto" markerHeight="36" markerWidth="57" refY="18" refX="39" id="ZERO_OR_MORE_END"><circle r="6" cy="18" cx="9" fill="white" stroke="gray"></circle><path d="M21,18 Q39,0 57,18 Q39,36 21,18" fill="none" stroke="gray"></path></marker></defs><path style="stroke: gray; fill: none;" marker-start="url(#ZERO_OR_MORE_START)" marker-end="url(#ONLY_ONE_END)" d="M305.574,264L305.574,272.333C305.574,280.667,305.574,297.333,305.574,314C305.574,330.667,305.574,347.333,305.574,355.667L305.574,364" class="er relationshipLine"></path><g transform="translate(20,53 )" id="entity-COMPANIES-2096b850-2b44-53d6-8625-02ad1dc56379"><rect height="178" width="114.7734375" y="0" x="0" class="er entityBox"></rect><text style="dominant-baseline: middle; text-anchor: middle; font-size: 12px;" transform="translate(57.38671875,12)" y="0" x="0" id="text-entity-COMPANIES-2096b850-2b44-53d6-8625-02ad1dc56379" class="er entityLabel">COMPANIES</text><rect height="22" width="29.7421875" y="24" x="0" class="er attributeBoxOdd"></rect><text style="dominant-baseline: middle; font-size: 10.2px;" transform="translate(5,35)" y="0" x="0" id="text-entity-COMPANIES-2096b850-2b44-53d6-8625-02ad1dc56379-attr-1-type" class="er entityLabel">uuid</text><rect height="22" width="63.46875" y="24" x="29.7421875" class="er attributeBoxOdd"></rect><text style="dominant-baseline: middle; font-size: 10.2px;" transform="translate(34.7421875,35)" y="0" x="0" id="text-entity-COMPANIES-2096b850-2b44-53d6-8625-02ad1dc56379-attr-1-name" class="er entityLabel">id</text><rect height="22" width="21.5625" y="24" x="93.2109375" class="er attributeBoxOdd"></rect><text style="dominant-baseline: middle; font-size: 10.2px;" transform="translate(98.2109375,35)" y="0" x="0" id="text-entity-COMPANIES-2096b850-2b44-53d6-8625-02ad1dc56379-attr-1-key" class="er entityLabel">PK</text><rect height="22" width="29.7421875" y="46" x="0" class="er attributeBoxEven"></rect><text style="dominant-baseline: middle; font-size: 10.2px;" transform="translate(5,57)" y="0" x="0" id="text-entity-COMPANIES-2096b850-2b44-53d6-8625-02ad1dc56379-attr-2-type" class="er entityLabel">text</text><rect height="22" width="63.46875" y="46" x="29.7421875" class="er attributeBoxEven"></rect><text style="dominant-baseline: middle; font-size: 10.2px;" transform="translate(34.7421875,57)" y="0" x="0" id="text-entity-COMPANIES-2096b850-2b44-53d6-8625-02ad1dc56379-attr-2-name" class="er entityLabel">name</text><rect height="22" width="21.5625" y="46" x="93.2109375" class="er attributeBoxEven"></rect><text style="dominant-baseline: middle; font-size: 10.2px;" transform="translate(98.2109375,57)" y="0" x="0" id="text-entity-COMPANIES-2096b850-2b44-53d6-8625-02ad1dc56379-attr-2-key" class="er entityLabel"></text><rect height="22" width="29.7421875" y="68" x="0" class="er attributeBoxOdd"></rect><text style="dominant-baseline: middle; font-size: 10.2px;" transform="translate(5,79)" y="0" x="0" id="text-entity-COMPANIES-2096b850-2b44-53d6-8625-02ad1dc56379-attr-3-type" class="er entityLabel">text</text><rect height="22" width="63.46875" y="68" x="29.7421875" class="er attributeBoxOdd"></rect><text style="dominant-baseline: middle; font-size: 10.2px;" transform="translate(34.7421875,79)" y="0" x="0" id="text-entity-COMPANIES-2096b850-2b44-53d6-8625-02ad1dc56379-attr-3-name" class="er entityLabel">email</text><rect height="22" width="21.5625" y="68" x="93.2109375" class="er attributeBoxOdd"></rect><text style="dominant-baseline: middle; font-size: 10.2px;" transform="translate(98.2109375,79)" y="0" x="0" id="text-entity-COMPANIES-2096b850-2b44-53d6-8625-02ad1dc56379-attr-3-key" class="er entityLabel"></text><rect height="22" width="29.7421875" y="90" x="0" class="er attributeBoxEven"></rect><text style="dominant-baseline: middle; font-size: 10.2px;" transform="translate(5,101)" y="0" x="0" id="text-entity-COMPANIES-2096b850-2b44-53d6-8625-02ad1dc56379-attr-4-type" class="er entityLabel">text</text><rect height="22" width="63.46875" y="90" x="29.7421875" class="er attributeBoxEven"></rect><text style="dominant-baseline: middle; font-size: 10.2px;" transform="translate(34.7421875,101)" y="0" x="0" id="text-entity-COMPANIES-2096b850-2b44-53d6-8625-02ad1dc56379-attr-4-name" class="er entityLabel">phone</text><rect height="22" width="21.5625" y="90" x="93.2109375" class="er attributeBoxEven"></rect><text style="dominant-baseline: middle; font-size: 10.2px;" transform="translate(98.2109375,101)" y="0" x="0" id="text-entity-COMPANIES-2096b850-2b44-53d6-8625-02ad1dc56379-attr-4-key" class="er entityLabel"></text><rect height="22" width="29.7421875" y="112" x="0" class="er attributeBoxOdd"></rect><text style="dominant-baseline: middle; font-size: 10.2px;" transform="translate(5,123)" y="0" x="0" id="text-entity-COMPANIES-2096b850-2b44-53d6-8625-02ad1dc56379-attr-5-type" class="er entityLabel">text</text><rect height="22" width="63.46875" y="112" x="29.7421875" class="er attributeBoxOdd"></rect><text style="dominant-baseline: middle; font-size: 10.2px;" transform="translate(34.7421875,123)" y="0" x="0" id="text-entity-COMPANIES-2096b850-2b44-53d6-8625-02ad1dc56379-attr-5-name" class="er entityLabel">address</text><rect height="22" width="21.5625" y="112" x="93.2109375" class="er attributeBoxOdd"></rect><text style="dominant-baseline: middle; font-size: 10.2px;" transform="translate(98.2109375,123)" y="0" x="0" id="text-entity-COMPANIES-2096b850-2b44-53d6-8625-02ad1dc56379-attr-5-key" class="er entityLabel"></text><rect height="22" width="29.7421875" y="134" x="0" class="er attributeBoxEven"></rect><text style="dominant-baseline: middle; font-size: 10.2px;" transform="translate(5,145)" y="0" x="0" id="text-entity-COMPANIES-2096b850-2b44-53d6-8625-02ad1dc56379-attr-6-type" class="er entityLabel">text</text><rect height="22" width="63.46875" y="134" x="29.7421875" class="er attributeBoxEven"></rect><text style="dominant-baseline: middle; font-size: 10.2px;" transform="translate(34.7421875,145)" y="0" x="0" id="text-entity-COMPANIES-2096b850-2b44-53d6-8625-02ad1dc56379-attr-6-name" class="er entityLabel">gst_number</text><rect height="22" width="21.5625" y="134" x="93.2109375" class="er attributeBoxEven"></rect><text style="dominant-baseline: middle; font-size: 10.2px;" transform="translate(98.2109375,145)" y="0" x="0" id="text-entity-COMPANIES-2096b850-2b44-53d6-8625-02ad1dc56379-attr-6-key" class="er entityLabel"></text><rect height="22" width="29.7421875" y="156" x="0" class="er attributeBoxOdd"></rect><text style="dominant-baseline: middle; font-size: 10.2px;" transform="translate(5,167)" y="0" x="0" id="text-entity-COMPANIES-2096b850-2b44-53d6-8625-02ad1dc56379-attr-7-type" class="er entityLabel">text</text><rect height="22" width="63.46875" y="156" x="29.7421875" class="er attributeBoxOdd"></rect><text style="dominant-baseline: middle; font-size: 10.2px;" transform="translate(34.7421875,167)" y="0" x="0" id="text-entity-COMPANIES-2096b850-2b44-53d6-8625-02ad1dc56379-attr-7-name" class="er entityLabel">logo_url</text><rect height="22" width="21.5625" y="156" x="93.2109375" class="er attributeBoxOdd"></rect><text style="dominant-baseline: middle; font-size: 10.2px;" transform="translate(98.2109375,167)" y="0" x="0" id="text-entity-COMPANIES-2096b850-2b44-53d6-8625-02ad1dc56379-attr-7-key" class="er entityLabel"></text></g><g transform="translate(231.53515625,364 )" id="entity-ESTIMATES-f87477b7-786f-599e-8b8a-e41204cf1502"><rect height="222" width="148.078125" y="0" x="0" class="er entityBox"></rect><text style="dominant-baseline: middle; text-anchor: middle; font-size: 12px;" transform="translate(74.0390625,12)" y="0" x="0" id="text-entity-ESTIMATES-f87477b7-786f-599e-8b8a-e41204cf1502" class="er entityLabel">ESTIMATES</text><rect height="22" width="36.2578125" y="24" x="0" class="er attributeBoxOdd"></rect><text style="dominant-baseline: middle; font-size: 10.2px;" transform="translate(5,35)" y="0" x="0" id="text-entity-ESTIMATES-f87477b7-786f-599e-8b8a-e41204cf1502-attr-1-type" class="er entityLabel">uuid</text><rect height="22" width="90.2578125" y="24" x="36.2578125" class="er attributeBoxOdd"></rect><text style="dominant-baseline: middle; font-size: 10.2px;" transform="translate(41.2578125,35)" y="0" x="0" id="text-entity-ESTIMATES-f87477b7-786f-599e-8b8a-e41204cf1502-attr-1-name" class="er entityLabel">id</text><rect height="22" width="21.5625" y="24" x="126.515625" class="er attributeBoxOdd"></rect><text style="dominant-baseline: middle; font-size: 10.2px;" transform="translate(131.515625,35)" y="0" x="0" id="text-entity-ESTIMATES-f87477b7-786f-599e-8b8a-e41204cf1502-attr-1-key" class="er entityLabel">PK</text><rect height="22" width="36.2578125" y="46" x="0" class="er attributeBoxEven"></rect><text style="dominant-baseline: middle; font-size: 10.2px;" transform="translate(5,57)" y="0" x="0" id="text-entity-ESTIMATES-f87477b7-786f-599e-8b8a-e41204cf1502-attr-2-type" class="er entityLabel">text</text><rect height="22" width="90.2578125" y="46" x="36.2578125" class="er attributeBoxEven"></rect><text style="dominant-baseline: middle; font-size: 10.2px;" transform="translate(41.2578125,57)" y="0" x="0" id="text-entity-ESTIMATES-f87477b7-786f-599e-8b8a-e41204cf1502-attr-2-name" class="er entityLabel">client_name</text><rect height="22" width="21.5625" y="46" x="126.515625" class="er attributeBoxEven"></rect><text style="dominant-baseline: middle; font-size: 10.2px;" transform="translate(131.515625,57)" y="0" x="0" id="text-entity-ESTIMATES-f87477b7-786f-599e-8b8a-e41204cf1502-attr-2-key" class="er entityLabel"></text><rect height="22" width="36.2578125" y="68" x="0" class="er attributeBoxOdd"></rect><text style="dominant-baseline: middle; font-size: 10.2px;" transform="translate(5,79)" y="0" x="0" id="text-entity-ESTIMATES-f87477b7-786f-599e-8b8a-e41204cf1502-attr-3-type" class="er entityLabel">text</text><rect height="22" width="90.2578125" y="68" x="36.2578125" class="er attributeBoxOdd"></rect><text style="dominant-baseline: middle; font-size: 10.2px;" transform="translate(41.2578125,79)" y="0" x="0" id="text-entity-ESTIMATES-f87477b7-786f-599e-8b8a-e41204cf1502-attr-3-name" class="er entityLabel">client_email</text><rect height="22" width="21.5625" y="68" x="126.515625" class="er attributeBoxOdd"></rect><text style="dominant-baseline: middle; font-size: 10.2px;" transform="translate(131.515625,79)" y="0" x="0" id="text-entity-ESTIMATES-f87477b7-786f-599e-8b8a-e41204cf1502-attr-3-key" class="er entityLabel"></text><rect height="22" width="36.2578125" y="90" x="0" class="er attributeBoxEven"></rect><text style="dominant-baseline: middle; font-size: 10.2px;" transform="translate(5,101)" y="0" x="0" id="text-entity-ESTIMATES-f87477b7-786f-599e-8b8a-e41204cf1502-attr-4-type" class="er entityLabel">text[]</text><rect height="22" width="90.2578125" y="90" x="36.2578125" class="er attributeBoxEven"></rect><text style="dominant-baseline: middle; font-size: 10.2px;" transform="translate(41.2578125,101)" y="0" x="0" id="text-entity-ESTIMATES-f87477b7-786f-599e-8b8a-e41204cf1502-attr-4-name" class="er entityLabel">selected_services</text><rect height="22" width="21.5625" y="90" x="126.515625" class="er attributeBoxEven"></rect><text style="dominant-baseline: middle; font-size: 10.2px;" transform="translate(131.515625,101)" y="0" x="0" id="text-entity-ESTIMATES-f87477b7-786f-599e-8b8a-e41204cf1502-attr-4-key" class="er entityLabel"></text><rect height="22" width="36.2578125" y="112" x="0" class="er attributeBoxOdd"></rect><text style="dominant-baseline: middle; font-size: 10.2px;" transform="translate(5,123)" y="0" x="0" id="text-entity-ESTIMATES-f87477b7-786f-599e-8b8a-e41204cf1502-attr-5-type" class="er entityLabel">jsonb</text><rect height="22" width="90.2578125" y="112" x="36.2578125" class="er attributeBoxOdd"></rect><text style="dominant-baseline: middle; font-size: 10.2px;" transform="translate(41.2578125,123)" y="0" x="0" id="text-entity-ESTIMATES-f87477b7-786f-599e-8b8a-e41204cf1502-attr-5-name" class="er entityLabel">estimate_details</text><rect height="22" width="21.5625" y="112" x="126.515625" class="er attributeBoxOdd"></rect><text style="dominant-baseline: middle; font-size: 10.2px;" transform="translate(131.515625,123)" y="0" x="0" id="text-entity-ESTIMATES-f87477b7-786f-599e-8b8a-e41204cf1502-attr-5-key" class="er entityLabel"></text><rect height="22" width="36.2578125" y="134" x="0" class="er attributeBoxEven"></rect><text style="dominant-baseline: middle; font-size: 10.2px;" transform="translate(5,145)" y="0" x="0" id="text-entity-ESTIMATES-f87477b7-786f-599e-8b8a-e41204cf1502-attr-6-type" class="er entityLabel">text[]</text><rect height="22" width="90.2578125" y="134" x="36.2578125" class="er attributeBoxEven"></rect><text style="dominant-baseline: middle; font-size: 10.2px;" transform="translate(41.2578125,145)" y="0" x="0" id="text-entity-ESTIMATES-f87477b7-786f-599e-8b8a-e41204cf1502-attr-6-name" class="er entityLabel">terms</text><rect height="22" width="21.5625" y="134" x="126.515625" class="er attributeBoxEven"></rect><text style="dominant-baseline: middle; font-size: 10.2px;" transform="translate(131.515625,145)" y="0" x="0" id="text-entity-ESTIMATES-f87477b7-786f-599e-8b8a-e41204cf1502-attr-6-key" class="er entityLabel"></text><rect height="22" width="36.2578125" y="156" x="0" class="er attributeBoxOdd"></rect><text style="dominant-baseline: middle; font-size: 10.2px;" transform="translate(5,167)" y="0" x="0" id="text-entity-ESTIMATES-f87477b7-786f-599e-8b8a-e41204cf1502-attr-7-type" class="er entityLabel">jsonb</text><rect height="22" width="90.2578125" y="156" x="36.2578125" class="er attributeBoxOdd"></rect><text style="dominant-baseline: middle; font-size: 10.2px;" transform="translate(41.2578125,167)" y="0" x="0" id="text-entity-ESTIMATES-f87477b7-786f-599e-8b8a-e41204cf1502-attr-7-name" class="er entityLabel">portfolio_links</text><rect height="22" width="21.5625" y="156" x="126.515625" class="er attributeBoxOdd"></rect><text style="dominant-baseline: middle; font-size: 10.2px;" transform="translate(131.515625,167)" y="0" x="0" id="text-entity-ESTIMATES-f87477b7-786f-599e-8b8a-e41204cf1502-attr-7-key" class="er entityLabel"></text><rect height="22" width="36.2578125" y="178" x="0" class="er attributeBoxEven"></rect><text style="dominant-baseline: middle; font-size: 10.2px;" transform="translate(5,189)" y="0" x="0" id="text-entity-ESTIMATES-f87477b7-786f-599e-8b8a-e41204cf1502-attr-8-type" class="er entityLabel">text</text><rect height="22" width="90.2578125" y="178" x="36.2578125" class="er attributeBoxEven"></rect><text style="dominant-baseline: middle; font-size: 10.2px;" transform="translate(41.2578125,189)" y="0" x="0" id="text-entity-ESTIMATES-f87477b7-786f-599e-8b8a-e41204cf1502-attr-8-name" class="er entityLabel">status</text><rect height="22" width="21.5625" y="178" x="126.515625" class="er attributeBoxEven"></rect><text style="dominant-baseline: middle; font-size: 10.2px;" transform="translate(131.515625,189)" y="0" x="0" id="text-entity-ESTIMATES-f87477b7-786f-599e-8b8a-e41204cf1502-attr-8-key" class="er entityLabel"></text><rect height="22" width="36.2578125" y="200" x="0" class="er attributeBoxOdd"></rect><text style="dominant-baseline: middle; font-size: 10.2px;" transform="translate(5,211)" y="0" x="0" id="text-entity-ESTIMATES-f87477b7-786f-599e-8b8a-e41204cf1502-attr-9-type" class="er entityLabel">text</text><rect height="22" width="90.2578125" y="200" x="36.2578125" class="er attributeBoxOdd"></rect><text style="dominant-baseline: middle; font-size: 10.2px;" transform="translate(41.2578125,211)" y="0" x="0" id="text-entity-ESTIMATES-f87477b7-786f-599e-8b8a-e41204cf1502-attr-9-name" class="er entityLabel">amount</text><rect height="22" width="21.5625" y="200" x="126.515625" class="er attributeBoxOdd"></rect><text style="dominant-baseline: middle; font-size: 10.2px;" transform="translate(131.515625,211)" y="0" x="0" id="text-entity-ESTIMATES-f87477b7-786f-599e-8b8a-e41204cf1502-attr-9-key" class="er entityLabel"></text></g><g transform="translate(234.7734375,20 )" id="entity-INVOICES-6f696299-1200-51b9-9470-06959337762d"><rect height="244" width="141.6015625" y="0" x="0" class="er entityBox"></rect><text style="dominant-baseline: middle; text-anchor: middle; font-size: 12px;" transform="translate(70.80078125,12)" y="0" x="0" id="text-entity-INVOICES-6f696299-1200-51b9-9470-06959337762d" class="er entityLabel">INVOICES</text><rect height="22" width="34.6015625" y="24" x="0" class="er attributeBoxOdd"></rect><text style="dominant-baseline: middle; font-size: 10.2px;" transform="translate(5,35)" y="0" x="0" id="text-entity-INVOICES-6f696299-1200-51b9-9470-06959337762d-attr-1-type" class="er entityLabel">uuid</text><rect height="22" width="85.4375" y="24" x="34.6015625" class="er attributeBoxOdd"></rect><text style="dominant-baseline: middle; font-size: 10.2px;" transform="translate(39.6015625,35)" y="0" x="0" id="text-entity-INVOICES-6f696299-1200-51b9-9470-06959337762d-attr-1-name" class="er entityLabel">id</text><rect height="22" width="21.5625" y="24" x="120.0390625" class="er attributeBoxOdd"></rect><text style="dominant-baseline: middle; font-size: 10.2px;" transform="translate(125.0390625,35)" y="0" x="0" id="text-entity-INVOICES-6f696299-1200-51b9-9470-06959337762d-attr-1-key" class="er entityLabel">PK</text><rect height="22" width="34.6015625" y="46" x="0" class="er attributeBoxEven"></rect><text style="dominant-baseline: middle; font-size: 10.2px;" transform="translate(5,57)" y="0" x="0" id="text-entity-INVOICES-6f696299-1200-51b9-9470-06959337762d-attr-2-type" class="er entityLabel">text</text><rect height="22" width="85.4375" y="46" x="34.6015625" class="er attributeBoxEven"></rect><text style="dominant-baseline: middle; font-size: 10.2px;" transform="translate(39.6015625,57)" y="0" x="0" id="text-entity-INVOICES-6f696299-1200-51b9-9470-06959337762d-attr-2-name" class="er entityLabel">display_number</text><rect height="22" width="21.5625" y="46" x="120.0390625" class="er attributeBoxEven"></rect><text style="dominant-baseline: middle; font-size: 10.2px;" transform="translate(125.0390625,57)" y="0" x="0" id="text-entity-INVOICES-6f696299-1200-51b9-9470-06959337762d-attr-2-key" class="er entityLabel"></text><rect height="22" width="34.6015625" y="68" x="0" class="er attributeBoxOdd"></rect><text style="dominant-baseline: middle; font-size: 10.2px;" transform="translate(5,79)" y="0" x="0" id="text-entity-INVOICES-6f696299-1200-51b9-9470-06959337762d-attr-3-type" class="er entityLabel">text</text><rect height="22" width="85.4375" y="68" x="34.6015625" class="er attributeBoxOdd"></rect><text style="dominant-baseline: middle; font-size: 10.2px;" transform="translate(39.6015625,79)" y="0" x="0" id="text-entity-INVOICES-6f696299-1200-51b9-9470-06959337762d-attr-3-name" class="er entityLabel">client</text><rect height="22" width="21.5625" y="68" x="120.0390625" class="er attributeBoxOdd"></rect><text style="dominant-baseline: middle; font-size: 10.2px;" transform="translate(125.0390625,79)" y="0" x="0" id="text-entity-INVOICES-6f696299-1200-51b9-9470-06959337762d-attr-3-key" class="er entityLabel"></text><rect height="22" width="34.6015625" y="90" x="0" class="er attributeBoxEven"></rect><text style="dominant-baseline: middle; font-size: 10.2px;" transform="translate(5,101)" y="0" x="0" id="text-entity-INVOICES-6f696299-1200-51b9-9470-06959337762d-attr-4-type" class="er entityLabel">text</text><rect height="22" width="85.4375" y="90" x="34.6015625" class="er attributeBoxEven"></rect><text style="dominant-baseline: middle; font-size: 10.2px;" transform="translate(39.6015625,101)" y="0" x="0" id="text-entity-INVOICES-6f696299-1200-51b9-9470-06959337762d-attr-4-name" class="er entityLabel">client_email</text><rect height="22" width="21.5625" y="90" x="120.0390625" class="er attributeBoxEven"></rect><text style="dominant-baseline: middle; font-size: 10.2px;" transform="translate(125.0390625,101)" y="0" x="0" id="text-entity-INVOICES-6f696299-1200-51b9-9470-06959337762d-attr-4-key" class="er entityLabel"></text><rect height="22" width="34.6015625" y="112" x="0" class="er attributeBoxOdd"></rect><text style="dominant-baseline: middle; font-size: 10.2px;" transform="translate(5,123)" y="0" x="0" id="text-entity-INVOICES-6f696299-1200-51b9-9470-06959337762d-attr-5-type" class="er entityLabel">uuid</text><rect height="22" width="85.4375" y="112" x="34.6015625" class="er attributeBoxOdd"></rect><text style="dominant-baseline: middle; font-size: 10.2px;" transform="translate(39.6015625,123)" y="0" x="0" id="text-entity-INVOICES-6f696299-1200-51b9-9470-06959337762d-attr-5-name" class="er entityLabel">estimate_id</text><rect height="22" width="21.5625" y="112" x="120.0390625" class="er attributeBoxOdd"></rect><text style="dominant-baseline: middle; font-size: 10.2px;" transform="translate(125.0390625,123)" y="0" x="0" id="text-entity-INVOICES-6f696299-1200-51b9-9470-06959337762d-attr-5-key" class="er entityLabel">FK</text><rect height="22" width="34.6015625" y="134" x="0" class="er attributeBoxEven"></rect><text style="dominant-baseline: middle; font-size: 10.2px;" transform="translate(5,145)" y="0" x="0" id="text-entity-INVOICES-6f696299-1200-51b9-9470-06959337762d-attr-6-type" class="er entityLabel">text</text><rect height="22" width="85.4375" y="134" x="34.6015625" class="er attributeBoxEven"></rect><text style="dominant-baseline: middle; font-size: 10.2px;" transform="translate(39.6015625,145)" y="0" x="0" id="text-entity-INVOICES-6f696299-1200-51b9-9470-06959337762d-attr-6-name" class="er entityLabel">amount</text><rect height="22" width="21.5625" y="134" x="120.0390625" class="er attributeBoxEven"></rect><text style="dominant-baseline: middle; font-size: 10.2px;" transform="translate(125.0390625,145)" y="0" x="0" id="text-entity-INVOICES-6f696299-1200-51b9-9470-06959337762d-attr-6-key" class="er entityLabel"></text><rect height="22" width="34.6015625" y="156" x="0" class="er attributeBoxOdd"></rect><text style="dominant-baseline: middle; font-size: 10.2px;" transform="translate(5,167)" y="0" x="0" id="text-entity-INVOICES-6f696299-1200-51b9-9470-06959337762d-attr-7-type" class="er entityLabel">text</text><rect height="22" width="85.4375" y="156" x="34.6015625" class="er attributeBoxOdd"></rect><text style="dominant-baseline: middle; font-size: 10.2px;" transform="translate(39.6015625,167)" y="0" x="0" id="text-entity-INVOICES-6f696299-1200-51b9-9470-06959337762d-attr-7-name" class="er entityLabel">paid_amount</text><rect height="22" width="21.5625" y="156" x="120.0390625" class="er attributeBoxOdd"></rect><text style="dominant-baseline: middle; font-size: 10.2px;" transform="translate(125.0390625,167)" y="0" x="0" id="text-entity-INVOICES-6f696299-1200-51b9-9470-06959337762d-attr-7-key" class="er entityLabel"></text><rect height="22" width="34.6015625" y="178" x="0" class="er attributeBoxEven"></rect><text style="dominant-baseline: middle; font-size: 10.2px;" transform="translate(5,189)" y="0" x="0" id="text-entity-INVOICES-6f696299-1200-51b9-9470-06959337762d-attr-8-type" class="er entityLabel">text</text><rect height="22" width="85.4375" y="178" x="34.6015625" class="er attributeBoxEven"></rect><text style="dominant-baseline: middle; font-size: 10.2px;" transform="translate(39.6015625,189)" y="0" x="0" id="text-entity-INVOICES-6f696299-1200-51b9-9470-06959337762d-attr-8-name" class="er entityLabel">balance_amount</text><rect height="22" width="21.5625" y="178" x="120.0390625" class="er attributeBoxEven"></rect><text style="dominant-baseline: middle; font-size: 10.2px;" transform="translate(125.0390625,189)" y="0" x="0" id="text-entity-INVOICES-6f696299-1200-51b9-9470-06959337762d-attr-8-key" class="er entityLabel"></text><rect height="22" width="34.6015625" y="200" x="0" class="er attributeBoxOdd"></rect><text style="dominant-baseline: middle; font-size: 10.2px;" transform="translate(5,211)" y="0" x="0" id="text-entity-INVOICES-6f696299-1200-51b9-9470-06959337762d-attr-9-type" class="er entityLabel">text</text><rect height="22" width="85.4375" y="200" x="34.6015625" class="er attributeBoxOdd"></rect><text style="dominant-baseline: middle; font-size: 10.2px;" transform="translate(39.6015625,211)" y="0" x="0" id="text-entity-INVOICES-6f696299-1200-51b9-9470-06959337762d-attr-9-name" class="er entityLabel">status</text><rect height="22" width="21.5625" y="200" x="120.0390625" class="er attributeBoxOdd"></rect><text style="dominant-baseline: middle; font-size: 10.2px;" transform="translate(125.0390625,211)" y="0" x="0" id="text-entity-INVOICES-6f696299-1200-51b9-9470-06959337762d-attr-9-key" class="er entityLabel"></text><rect height="22" width="34.6015625" y="222" x="0" class="er attributeBoxEven"></rect><text style="dominant-baseline: middle; font-size: 10.2px;" transform="translate(5,233)" y="0" x="0" id="text-entity-INVOICES-6f696299-1200-51b9-9470-06959337762d-attr-10-type" class="er entityLabel">jsonb</text><rect height="22" width="85.4375" y="222" x="34.6015625" class="er attributeBoxEven"></rect><text style="dominant-baseline: middle; font-size: 10.2px;" transform="translate(39.6015625,233)" y="0" x="0" id="text-entity-INVOICES-6f696299-1200-51b9-9470-06959337762d-attr-10-name" class="er entityLabel">items</text><rect height="22" width="21.5625" y="222" x="120.0390625" class="er attributeBoxEven"></rect><text style="dominant-baseline: middle; font-size: 10.2px;" transform="translate(125.0390625,233)" y="0" x="0" id="text-entity-INVOICES-6f696299-1200-51b9-9470-06959337762d-attr-10-key" class="er entityLabel"></text></g><rect height="14" width="63.5546875" y="307" x="273.7966613769531" class="er relationshipLabelBox"></rect><text style="text-anchor: middle; dominant-baseline: middle; font-size: 12px;" y="314" x="305.5740051269531" id="rel27" class="er relationshipLabel">estimate_id</text><text class="entityTitleText" y="-25" x="199.806640625" text-anchor="middle">💼 2️⃣ Company &amp; Estimates / Invoices</text></svg>