<?xml version="1.0" encoding="UTF-8"?>
<?xml-stylesheet href="https://cdnjs.cloudflare.com/ajax/libs/font-awesome/6.5.1/css/all.min.css" type="text/css"?>
<svg aria-roledescription="er" role="graphics-document document" viewBox="0 -62 338.98284912109375 660" style="max-width: 100%; max-height: 100%; background: white; color: rgb(51, 51, 51);" xmlns="http://www.w3.org/2000/svg" width="100%" id="mermaid-image-editor"><style>#mermaid-image-editor{font-family:"trebuchet ms",verdana,arial,sans-serif;font-size:16px;fill:#333;}#mermaid-image-editor .error-icon{fill:#552222;}#mermaid-image-editor .error-text{fill:#552222;stroke:#552222;}#mermaid-image-editor .edge-thickness-normal{stroke-width:1px;}#mermaid-image-editor .edge-thickness-thick{stroke-width:3.5px;}#mermaid-image-editor .edge-pattern-solid{stroke-dasharray:0;}#mermaid-image-editor .edge-thickness-invisible{stroke-width:0;fill:none;}#mermaid-image-editor .edge-pattern-dashed{stroke-dasharray:3;}#mermaid-image-editor .edge-pattern-dotted{stroke-dasharray:2;}#mermaid-image-editor .marker{fill:#333333;stroke:#333333;}#mermaid-image-editor .marker.cross{stroke:#333333;}#mermaid-image-editor svg{font-family:"trebuchet ms",verdana,arial,sans-serif;font-size:16px;}#mermaid-image-editor p{margin:0;}#mermaid-image-editor .entityBox{fill:#ECECFF;stroke:#9370DB;}#mermaid-image-editor .attributeBoxOdd{fill:#ffffff;stroke:#9370DB;}#mermaid-image-editor .attributeBoxEven{fill:#f2f2f2;stroke:#9370DB;}#mermaid-image-editor .relationshipLabelBox{fill:hsl(80, 100%, 96.2745098039%);opacity:0.7;background-color:hsl(80, 100%, 96.2745098039%);}#mermaid-image-editor .relationshipLabelBox rect{opacity:0.5;}#mermaid-image-editor .relationshipLine{stroke:#333333;}#mermaid-image-editor .entityTitleText{text-anchor:middle;font-size:18px;fill:#333;}#mermaid-image-editor #MD_PARENT_START{fill:#f5f5f5!important;stroke:#333333!important;stroke-width:1;}#mermaid-image-editor #MD_PARENT_END{fill:#f5f5f5!important;stroke:#333333!important;stroke-width:1;}#mermaid-image-editor :root{--mermaid-font-family:"trebuchet ms",verdana,arial,sans-serif;}</style><g></g><defs><marker orient="auto" markerHeight="240" markerWidth="190" refY="7" refX="0" id="MD_PARENT_START"><path d="M 18,7 L9,13 L1,7 L9,1 Z"></path></marker></defs><defs><marker orient="auto" markerHeight="28" markerWidth="20" refY="7" refX="19" id="MD_PARENT_END"><path d="M 18,7 L9,13 L1,7 L9,1 Z"></path></marker></defs><defs><marker orient="auto" markerHeight="18" markerWidth="18" refY="9" refX="0" id="ONLY_ONE_START"><path d="M9,0 L9,18 M15,0 L15,18" fill="none" stroke="gray"></path></marker></defs><defs><marker orient="auto" markerHeight="18" markerWidth="18" refY="9" refX="18" id="ONLY_ONE_END"><path d="M3,0 L3,18 M9,0 L9,18" fill="none" stroke="gray"></path></marker></defs><defs><marker orient="auto" markerHeight="18" markerWidth="30" refY="9" refX="0" id="ZERO_OR_ONE_START"><circle r="6" cy="9" cx="21" fill="white" stroke="gray"></circle><path d="M9,0 L9,18" fill="none" stroke="gray"></path></marker></defs><defs><marker orient="auto" markerHeight="18" markerWidth="30" refY="9" refX="30" id="ZERO_OR_ONE_END"><circle r="6" cy="9" cx="9" fill="white" stroke="gray"></circle><path d="M21,0 L21,18" fill="none" stroke="gray"></path></marker></defs><defs><marker orient="auto" markerHeight="36" markerWidth="45" refY="18" refX="18" id="ONE_OR_MORE_START"><path d="M0,18 Q 18,0 36,18 Q 18,36 0,18 M42,9 L42,27" fill="none" stroke="gray"></path></marker></defs><defs><marker orient="auto" markerHeight="36" markerWidth="45" refY="18" refX="27" id="ONE_OR_MORE_END"><path d="M3,9 L3,27 M9,18 Q27,0 45,18 Q27,36 9,18" fill="none" stroke="gray"></path></marker></defs><defs><marker orient="auto" markerHeight="36" markerWidth="57" refY="18" refX="18" id="ZERO_OR_MORE_START"><circle r="6" cy="18" cx="48" fill="white" stroke="gray"></circle><path d="M0,18 Q18,0 36,18 Q18,36 0,18" fill="none" stroke="gray"></path></marker></defs><defs><marker orient="auto" markerHeight="36" markerWidth="57" refY="18" refX="39" id="ZERO_OR_MORE_END"><circle r="6" cy="18" cx="9" fill="white" stroke="gray"></circle><path d="M21,18 Q39,0 57,18 Q39,36 21,18" fill="none" stroke="gray"></path></marker></defs><path style="stroke: gray; fill: none;" marker-start="url(#ZERO_OR_MORE_START)" marker-end="url(#ONLY_ONE_END)" d="M103.742,388L103.742,396.333C103.742,404.667,103.742,421.333,111.801,438C119.86,454.667,135.978,471.333,144.037,479.667L152.095,488" class="er relationshipLine"></path><path style="stroke: gray; fill: none;" marker-start="url(#ZERO_OR_MORE_START)" marker-end="url(#ONLY_ONE_END)" d="M254.437,198L259.945,206.333C265.453,214.667,276.469,231.333,281.977,255.5C287.484,279.667,287.484,311.333,287.484,343C287.484,374.667,287.484,406.333,279.426,430.5C271.367,454.667,255.249,471.333,247.19,479.667L239.131,488" class="er relationshipLine"></path><path style="stroke: gray; fill: none;" marker-start="url(#ZERO_OR_MORE_START)" marker-end="url(#ONLY_ONE_END)" d="M136.789,198L131.281,206.333C125.774,214.667,114.758,231.333,109.25,248C103.742,264.667,103.742,281.333,103.742,289.667L103.742,298" class="er relationshipLine"></path><g transform="translate(122.04296875,488 )" id="entity-FINANCECATEGORIES-42a20c33-2383-573d-b7f9-23b02c3d7068"><rect height="90" width="147.140625" y="0" x="0" class="er entityBox"></rect><text style="dominant-baseline: middle; text-anchor: middle; font-size: 12px;" transform="translate(73.5703125,12)" y="0" x="0" id="text-entity-FINANCECATEGORIES-42a20c33-2383-573d-b7f9-23b02c3d7068" class="er entityLabel">FINANCE_CATEGORIES</text><rect height="22" width="50.03125" y="24" x="0" class="er attributeBoxOdd"></rect><text style="dominant-baseline: middle; font-size: 10.2px;" transform="translate(5,35)" y="0" x="0" id="text-entity-FINANCECATEGORIES-42a20c33-2383-573d-b7f9-23b02c3d7068-attr-1-type" class="er entityLabel">uuid</text><rect height="22" width="55.2578125" y="24" x="50.03125" class="er attributeBoxOdd"></rect><text style="dominant-baseline: middle; font-size: 10.2px;" transform="translate(55.03125,35)" y="0" x="0" id="text-entity-FINANCECATEGORIES-42a20c33-2383-573d-b7f9-23b02c3d7068-attr-1-name" class="er entityLabel">id</text><rect height="22" width="41.8515625" y="24" x="105.2890625" class="er attributeBoxOdd"></rect><text style="dominant-baseline: middle; font-size: 10.2px;" transform="translate(110.2890625,35)" y="0" x="0" id="text-entity-FINANCECATEGORIES-42a20c33-2383-573d-b7f9-23b02c3d7068-attr-1-key" class="er entityLabel">PK</text><rect height="22" width="50.03125" y="46" x="0" class="er attributeBoxEven"></rect><text style="dominant-baseline: middle; font-size: 10.2px;" transform="translate(5,57)" y="0" x="0" id="text-entity-FINANCECATEGORIES-42a20c33-2383-573d-b7f9-23b02c3d7068-attr-2-type" class="er entityLabel">text</text><rect height="22" width="55.2578125" y="46" x="50.03125" class="er attributeBoxEven"></rect><text style="dominant-baseline: middle; font-size: 10.2px;" transform="translate(55.03125,57)" y="0" x="0" id="text-entity-FINANCECATEGORIES-42a20c33-2383-573d-b7f9-23b02c3d7068-attr-2-name" class="er entityLabel">name</text><rect height="22" width="41.8515625" y="46" x="105.2890625" class="er attributeBoxEven"></rect><text style="dominant-baseline: middle; font-size: 10.2px;" transform="translate(110.2890625,57)" y="0" x="0" id="text-entity-FINANCECATEGORIES-42a20c33-2383-573d-b7f9-23b02c3d7068-attr-2-key" class="er entityLabel"></text><rect height="22" width="50.03125" y="68" x="0" class="er attributeBoxOdd"></rect><text style="dominant-baseline: middle; font-size: 10.2px;" transform="translate(5,79)" y="0" x="0" id="text-entity-FINANCECATEGORIES-42a20c33-2383-573d-b7f9-23b02c3d7068-attr-3-type" class="er entityLabel">text</text><rect height="22" width="55.2578125" y="68" x="50.03125" class="er attributeBoxOdd"></rect><text style="dominant-baseline: middle; font-size: 10.2px;" transform="translate(55.03125,79)" y="0" x="0" id="text-entity-FINANCECATEGORIES-42a20c33-2383-573d-b7f9-23b02c3d7068-attr-3-name" class="er entityLabel">type</text><rect height="22" width="41.8515625" y="68" x="105.2890625" class="er attributeBoxOdd"></rect><text style="dominant-baseline: middle; font-size: 10.2px;" transform="translate(110.2890625,79)" y="0" x="0" id="text-entity-FINANCECATEGORIES-42a20c33-2383-573d-b7f9-23b02c3d7068-attr-3-key" class="er entityLabel"></text></g><g transform="translate(20,298 )" id="entity-FINANCESUBCATEGORIES-a616ac97-86d3-56d1-bee1-377456e34721"><rect height="90" width="167.484375" y="0" x="0" class="er entityBox"></rect><text style="dominant-baseline: middle; text-anchor: middle; font-size: 12px;" transform="translate(83.7421875,12)" y="0" x="0" id="text-entity-FINANCESUBCATEGORIES-a616ac97-86d3-56d1-bee1-377456e34721" class="er entityLabel">FINANCE_SUBCATEGORIES</text><rect height="22" width="47.28645833333333" y="24" x="0" class="er attributeBoxOdd"></rect><text style="dominant-baseline: middle; font-size: 10.2px;" transform="translate(5,35)" y="0" x="0" id="text-entity-FINANCESUBCATEGORIES-a616ac97-86d3-56d1-bee1-377456e34721-attr-1-type" class="er entityLabel">uuid</text><rect height="22" width="81.09114583333333" y="24" x="47.28645833333333" class="er attributeBoxOdd"></rect><text style="dominant-baseline: middle; font-size: 10.2px;" transform="translate(52.28645833333333,35)" y="0" x="0" id="text-entity-FINANCESUBCATEGORIES-a616ac97-86d3-56d1-bee1-377456e34721-attr-1-name" class="er entityLabel">id</text><rect height="22" width="39.10677083333333" y="24" x="128.37760416666666" class="er attributeBoxOdd"></rect><text style="dominant-baseline: middle; font-size: 10.2px;" transform="translate(133.37760416666666,35)" y="0" x="0" id="text-entity-FINANCESUBCATEGORIES-a616ac97-86d3-56d1-bee1-377456e34721-attr-1-key" class="er entityLabel">PK</text><rect height="22" width="47.28645833333333" y="46" x="0" class="er attributeBoxEven"></rect><text style="dominant-baseline: middle; font-size: 10.2px;" transform="translate(5,57)" y="0" x="0" id="text-entity-FINANCESUBCATEGORIES-a616ac97-86d3-56d1-bee1-377456e34721-attr-2-type" class="er entityLabel">uuid</text><rect height="22" width="81.09114583333333" y="46" x="47.28645833333333" class="er attributeBoxEven"></rect><text style="dominant-baseline: middle; font-size: 10.2px;" transform="translate(52.28645833333333,57)" y="0" x="0" id="text-entity-FINANCESUBCATEGORIES-a616ac97-86d3-56d1-bee1-377456e34721-attr-2-name" class="er entityLabel">category_id</text><rect height="22" width="39.10677083333333" y="46" x="128.37760416666666" class="er attributeBoxEven"></rect><text style="dominant-baseline: middle; font-size: 10.2px;" transform="translate(133.37760416666666,57)" y="0" x="0" id="text-entity-FINANCESUBCATEGORIES-a616ac97-86d3-56d1-bee1-377456e34721-attr-2-key" class="er entityLabel">FK</text><rect height="22" width="47.28645833333333" y="68" x="0" class="er attributeBoxOdd"></rect><text style="dominant-baseline: middle; font-size: 10.2px;" transform="translate(5,79)" y="0" x="0" id="text-entity-FINANCESUBCATEGORIES-a616ac97-86d3-56d1-bee1-377456e34721-attr-3-type" class="er entityLabel">text</text><rect height="22" width="81.09114583333333" y="68" x="47.28645833333333" class="er attributeBoxOdd"></rect><text style="dominant-baseline: middle; font-size: 10.2px;" transform="translate(52.28645833333333,79)" y="0" x="0" id="text-entity-FINANCESUBCATEGORIES-a616ac97-86d3-56d1-bee1-377456e34721-attr-3-name" class="er entityLabel">name</text><rect height="22" width="39.10677083333333" y="68" x="128.37760416666666" class="er attributeBoxOdd"></rect><text style="dominant-baseline: middle; font-size: 10.2px;" transform="translate(133.37760416666666,79)" y="0" x="0" id="text-entity-FINANCESUBCATEGORIES-a616ac97-86d3-56d1-bee1-377456e34721-attr-3-key" class="er entityLabel"></text></g><g transform="translate(114.37890625,20 )" id="entity-FINANCETRANSACTIONS-66769280-f6b2-569a-aebc-a993f1c9432c"><rect height="178" width="162.46875" y="0" x="0" class="er entityBox"></rect><text style="dominant-baseline: middle; text-anchor: middle; font-size: 12px;" transform="translate(81.234375,12)" y="0" x="0" id="text-entity-FINANCETRANSACTIONS-66769280-f6b2-569a-aebc-a993f1c9432c" class="er entityLabel">FINANCE_TRANSACTIONS</text><rect height="22" width="48.411458333333336" y="24" x="0" class="er attributeBoxOdd"></rect><text style="dominant-baseline: middle; font-size: 10.2px;" transform="translate(5,35)" y="0" x="0" id="text-entity-FINANCETRANSACTIONS-66769280-f6b2-569a-aebc-a993f1c9432c-attr-1-type" class="er entityLabel">uuid</text><rect height="22" width="91.18489583333333" y="24" x="48.411458333333336" class="er attributeBoxOdd"></rect><text style="dominant-baseline: middle; font-size: 10.2px;" transform="translate(53.411458333333336,35)" y="0" x="0" id="text-entity-FINANCETRANSACTIONS-66769280-f6b2-569a-aebc-a993f1c9432c-attr-1-name" class="er entityLabel">id</text><rect height="22" width="22.872395833333332" y="24" x="139.59635416666666" class="er attributeBoxOdd"></rect><text style="dominant-baseline: middle; font-size: 10.2px;" transform="translate(144.59635416666666,35)" y="0" x="0" id="text-entity-FINANCETRANSACTIONS-66769280-f6b2-569a-aebc-a993f1c9432c-attr-1-key" class="er entityLabel">PK</text><rect height="22" width="48.411458333333336" y="46" x="0" class="er attributeBoxEven"></rect><text style="dominant-baseline: middle; font-size: 10.2px;" transform="translate(5,57)" y="0" x="0" id="text-entity-FINANCETRANSACTIONS-66769280-f6b2-569a-aebc-a993f1c9432c-attr-2-type" class="er entityLabel">uuid</text><rect height="22" width="91.18489583333333" y="46" x="48.411458333333336" class="er attributeBoxEven"></rect><text style="dominant-baseline: middle; font-size: 10.2px;" transform="translate(53.411458333333336,57)" y="0" x="0" id="text-entity-FINANCETRANSACTIONS-66769280-f6b2-569a-aebc-a993f1c9432c-attr-2-name" class="er entityLabel">category_id</text><rect height="22" width="22.872395833333332" y="46" x="139.59635416666666" class="er attributeBoxEven"></rect><text style="dominant-baseline: middle; font-size: 10.2px;" transform="translate(144.59635416666666,57)" y="0" x="0" id="text-entity-FINANCETRANSACTIONS-66769280-f6b2-569a-aebc-a993f1c9432c-attr-2-key" class="er entityLabel">FK</text><rect height="22" width="48.411458333333336" y="68" x="0" class="er attributeBoxOdd"></rect><text style="dominant-baseline: middle; font-size: 10.2px;" transform="translate(5,79)" y="0" x="0" id="text-entity-FINANCETRANSACTIONS-66769280-f6b2-569a-aebc-a993f1c9432c-attr-3-type" class="er entityLabel">uuid</text><rect height="22" width="91.18489583333333" y="68" x="48.411458333333336" class="er attributeBoxOdd"></rect><text style="dominant-baseline: middle; font-size: 10.2px;" transform="translate(53.411458333333336,79)" y="0" x="0" id="text-entity-FINANCETRANSACTIONS-66769280-f6b2-569a-aebc-a993f1c9432c-attr-3-name" class="er entityLabel">subcategory_id</text><rect height="22" width="22.872395833333332" y="68" x="139.59635416666666" class="er attributeBoxOdd"></rect><text style="dominant-baseline: middle; font-size: 10.2px;" transform="translate(144.59635416666666,79)" y="0" x="0" id="text-entity-FINANCETRANSACTIONS-66769280-f6b2-569a-aebc-a993f1c9432c-attr-3-key" class="er entityLabel">FK</text><rect height="22" width="48.411458333333336" y="90" x="0" class="er attributeBoxEven"></rect><text style="dominant-baseline: middle; font-size: 10.2px;" transform="translate(5,101)" y="0" x="0" id="text-entity-FINANCETRANSACTIONS-66769280-f6b2-569a-aebc-a993f1c9432c-attr-4-type" class="er entityLabel">numeric</text><rect height="22" width="91.18489583333333" y="90" x="48.411458333333336" class="er attributeBoxEven"></rect><text style="dominant-baseline: middle; font-size: 10.2px;" transform="translate(53.411458333333336,101)" y="0" x="0" id="text-entity-FINANCETRANSACTIONS-66769280-f6b2-569a-aebc-a993f1c9432c-attr-4-name" class="er entityLabel">amount</text><rect height="22" width="22.872395833333332" y="90" x="139.59635416666666" class="er attributeBoxEven"></rect><text style="dominant-baseline: middle; font-size: 10.2px;" transform="translate(144.59635416666666,101)" y="0" x="0" id="text-entity-FINANCETRANSACTIONS-66769280-f6b2-569a-aebc-a993f1c9432c-attr-4-key" class="er entityLabel"></text><rect height="22" width="48.411458333333336" y="112" x="0" class="er attributeBoxOdd"></rect><text style="dominant-baseline: middle; font-size: 10.2px;" transform="translate(5,123)" y="0" x="0" id="text-entity-FINANCETRANSACTIONS-66769280-f6b2-569a-aebc-a993f1c9432c-attr-5-type" class="er entityLabel">date</text><rect height="22" width="91.18489583333333" y="112" x="48.411458333333336" class="er attributeBoxOdd"></rect><text style="dominant-baseline: middle; font-size: 10.2px;" transform="translate(53.411458333333336,123)" y="0" x="0" id="text-entity-FINANCETRANSACTIONS-66769280-f6b2-569a-aebc-a993f1c9432c-attr-5-name" class="er entityLabel">transaction_date</text><rect height="22" width="22.872395833333332" y="112" x="139.59635416666666" class="er attributeBoxOdd"></rect><text style="dominant-baseline: middle; font-size: 10.2px;" transform="translate(144.59635416666666,123)" y="0" x="0" id="text-entity-FINANCETRANSACTIONS-66769280-f6b2-569a-aebc-a993f1c9432c-attr-5-key" class="er entityLabel"></text><rect height="22" width="48.411458333333336" y="134" x="0" class="er attributeBoxEven"></rect><text style="dominant-baseline: middle; font-size: 10.2px;" transform="translate(5,145)" y="0" x="0" id="text-entity-FINANCETRANSACTIONS-66769280-f6b2-569a-aebc-a993f1c9432c-attr-6-type" class="er entityLabel">text</text><rect height="22" width="91.18489583333333" y="134" x="48.411458333333336" class="er attributeBoxEven"></rect><text style="dominant-baseline: middle; font-size: 10.2px;" transform="translate(53.411458333333336,145)" y="0" x="0" id="text-entity-FINANCETRANSACTIONS-66769280-f6b2-569a-aebc-a993f1c9432c-attr-6-name" class="er entityLabel">transaction_type</text><rect height="22" width="22.872395833333332" y="134" x="139.59635416666666" class="er attributeBoxEven"></rect><text style="dominant-baseline: middle; font-size: 10.2px;" transform="translate(144.59635416666666,145)" y="0" x="0" id="text-entity-FINANCETRANSACTIONS-66769280-f6b2-569a-aebc-a993f1c9432c-attr-6-key" class="er entityLabel"></text><rect height="22" width="48.411458333333336" y="156" x="0" class="er attributeBoxOdd"></rect><text style="dominant-baseline: middle; font-size: 10.2px;" transform="translate(5,167)" y="0" x="0" id="text-entity-FINANCETRANSACTIONS-66769280-f6b2-569a-aebc-a993f1c9432c-attr-7-type" class="er entityLabel">text</text><rect height="22" width="91.18489583333333" y="156" x="48.411458333333336" class="er attributeBoxOdd"></rect><text style="dominant-baseline: middle; font-size: 10.2px;" transform="translate(53.411458333333336,167)" y="0" x="0" id="text-entity-FINANCETRANSACTIONS-66769280-f6b2-569a-aebc-a993f1c9432c-attr-7-name" class="er entityLabel">payment_method</text><rect height="22" width="22.872395833333332" y="156" x="139.59635416666666" class="er attributeBoxOdd"></rect><text style="dominant-baseline: middle; font-size: 10.2px;" transform="translate(144.59635416666666,167)" y="0" x="0" id="text-entity-FINANCETRANSACTIONS-66769280-f6b2-569a-aebc-a993f1c9432c-attr-7-key" class="er entityLabel"></text></g><rect height="14" width="63" y="436.8670654296875" x="83.45272064208984" class="er relationshipLabelBox"></rect><text style="text-anchor: middle; dominant-baseline: middle; font-size: 12px;" y="443.8670654296875" x="114.95272064208984" id="rel44" class="er relationshipLabel">category_id</text><rect height="14" width="63" y="339.5585632324219" x="255.98284912109375" class="er relationshipLabelBox"></rect><text style="text-anchor: middle; dominant-baseline: middle; font-size: 12px;" y="346.5585632324219" x="287.48284912109375" id="rel45" class="er relationshipLabel">category_id</text><rect height="14" width="81.09375" y="237.83567810058594" x="69.81310272216797" class="er relationshipLabelBox"></rect><text style="text-anchor: middle; dominant-baseline: middle; font-size: 12px;" y="244.83567810058594" x="110.35997772216797" id="rel46" class="er relationshipLabel">subcategory_id</text><text class="entityTitleText" y="-25" x="169.49142456054688" text-anchor="middle">💰 4️⃣ Finance Domain</text></svg>