<?xml version="1.0" encoding="UTF-8"?>
<?xml-stylesheet href="https://cdnjs.cloudflare.com/ajax/libs/font-awesome/6.5.1/css/all.min.css" type="text/css"?>
<svg aria-roledescription="er" role="graphics-document document" viewBox="0 -62 640.109375 602" style="max-width: 100%; max-height: 100%; background: white; color: rgb(51, 51, 51);" xmlns="http://www.w3.org/2000/svg" width="100%" id="mermaid-image-editor"><style>#mermaid-image-editor{font-family:"trebuchet ms",verdana,arial,sans-serif;font-size:16px;fill:#333;}#mermaid-image-editor .error-icon{fill:#552222;}#mermaid-image-editor .error-text{fill:#552222;stroke:#552222;}#mermaid-image-editor .edge-thickness-normal{stroke-width:1px;}#mermaid-image-editor .edge-thickness-thick{stroke-width:3.5px;}#mermaid-image-editor .edge-pattern-solid{stroke-dasharray:0;}#mermaid-image-editor .edge-thickness-invisible{stroke-width:0;fill:none;}#mermaid-image-editor .edge-pattern-dashed{stroke-dasharray:3;}#mermaid-image-editor .edge-pattern-dotted{stroke-dasharray:2;}#mermaid-image-editor .marker{fill:#333333;stroke:#333333;}#mermaid-image-editor .marker.cross{stroke:#333333;}#mermaid-image-editor svg{font-family:"trebuchet ms",verdana,arial,sans-serif;font-size:16px;}#mermaid-image-editor p{margin:0;}#mermaid-image-editor .entityBox{fill:#ECECFF;stroke:#9370DB;}#mermaid-image-editor .attributeBoxOdd{fill:#ffffff;stroke:#9370DB;}#mermaid-image-editor .attributeBoxEven{fill:#f2f2f2;stroke:#9370DB;}#mermaid-image-editor .relationshipLabelBox{fill:hsl(80, 100%, 96.2745098039%);opacity:0.7;background-color:hsl(80, 100%, 96.2745098039%);}#mermaid-image-editor .relationshipLabelBox rect{opacity:0.5;}#mermaid-image-editor .relationshipLine{stroke:#333333;}#mermaid-image-editor .entityTitleText{text-anchor:middle;font-size:18px;fill:#333;}#mermaid-image-editor #MD_PARENT_START{fill:#f5f5f5!important;stroke:#333333!important;stroke-width:1;}#mermaid-image-editor #MD_PARENT_END{fill:#f5f5f5!important;stroke:#333333!important;stroke-width:1;}#mermaid-image-editor :root{--mermaid-font-family:"trebuchet ms",verdana,arial,sans-serif;}</style><g></g><defs><marker orient="auto" markerHeight="240" markerWidth="190" refY="7" refX="0" id="MD_PARENT_START"><path d="M 18,7 L9,13 L1,7 L9,1 Z"></path></marker></defs><defs><marker orient="auto" markerHeight="28" markerWidth="20" refY="7" refX="19" id="MD_PARENT_END"><path d="M 18,7 L9,13 L1,7 L9,1 Z"></path></marker></defs><defs><marker orient="auto" markerHeight="18" markerWidth="18" refY="9" refX="0" id="ONLY_ONE_START"><path d="M9,0 L9,18 M15,0 L15,18" fill="none" stroke="gray"></path></marker></defs><defs><marker orient="auto" markerHeight="18" markerWidth="18" refY="9" refX="18" id="ONLY_ONE_END"><path d="M3,0 L3,18 M9,0 L9,18" fill="none" stroke="gray"></path></marker></defs><defs><marker orient="auto" markerHeight="18" markerWidth="30" refY="9" refX="0" id="ZERO_OR_ONE_START"><circle r="6" cy="9" cx="21" fill="white" stroke="gray"></circle><path d="M9,0 L9,18" fill="none" stroke="gray"></path></marker></defs><defs><marker orient="auto" markerHeight="18" markerWidth="30" refY="9" refX="30" id="ZERO_OR_ONE_END"><circle r="6" cy="9" cx="9" fill="white" stroke="gray"></circle><path d="M21,0 L21,18" fill="none" stroke="gray"></path></marker></defs><defs><marker orient="auto" markerHeight="36" markerWidth="45" refY="18" refX="18" id="ONE_OR_MORE_START"><path d="M0,18 Q 18,0 36,18 Q 18,36 0,18 M42,9 L42,27" fill="none" stroke="gray"></path></marker></defs><defs><marker orient="auto" markerHeight="36" markerWidth="45" refY="18" refX="27" id="ONE_OR_MORE_END"><path d="M3,9 L3,27 M9,18 Q27,0 45,18 Q27,36 9,18" fill="none" stroke="gray"></path></marker></defs><defs><marker orient="auto" markerHeight="36" markerWidth="57" refY="18" refX="18" id="ZERO_OR_MORE_START"><circle r="6" cy="18" cx="48" fill="white" stroke="gray"></circle><path d="M0,18 Q18,0 36,18 Q18,36 0,18" fill="none" stroke="gray"></path></marker></defs><defs><marker orient="auto" markerHeight="36" markerWidth="57" refY="18" refX="39" id="ZERO_OR_MORE_END"><circle r="6" cy="18" cx="9" fill="white" stroke="gray"></circle><path d="M21,18 Q39,0 57,18 Q39,36 21,18" fill="none" stroke="gray"></path></marker></defs><path style="stroke: gray; fill: none;" marker-start="url(#ZERO_OR_MORE_START)" marker-end="url(#ONLY_ONE_END)" d="M541.984,198L541.984,206.333C541.984,214.667,541.984,231.333,541.984,248C541.984,264.667,541.984,281.333,541.984,289.667L541.984,298" class="er relationshipLine"></path><g transform="translate(471.24609375,298 )" id="entity-TEAMMEMBERS-a2c7ee65-8b57-564c-a929-02c20242d54f"><rect height="222" width="141.4765625" y="0" x="0" class="er entityBox"></rect><text style="dominant-baseline: middle; text-anchor: middle; font-size: 12px;" transform="translate(70.73828125,12)" y="0" x="0" id="text-entity-TEAMMEMBERS-a2c7ee65-8b57-564c-a929-02c20242d54f" class="er entityLabel">TEAM_MEMBERS</text><rect height="22" width="47.1015625" y="24" x="0" class="er attributeBoxOdd"></rect><text style="dominant-baseline: middle; font-size: 10.2px;" transform="translate(5,35)" y="0" x="0" id="text-entity-TEAMMEMBERS-a2c7ee65-8b57-564c-a929-02c20242d54f-attr-1-type" class="er entityLabel">uuid</text><rect height="22" width="72.8125" y="24" x="47.1015625" class="er attributeBoxOdd"></rect><text style="dominant-baseline: middle; font-size: 10.2px;" transform="translate(52.1015625,35)" y="0" x="0" id="text-entity-TEAMMEMBERS-a2c7ee65-8b57-564c-a929-02c20242d54f-attr-1-name" class="er entityLabel">id</text><rect height="22" width="21.5625" y="24" x="119.9140625" class="er attributeBoxOdd"></rect><text style="dominant-baseline: middle; font-size: 10.2px;" transform="translate(124.9140625,35)" y="0" x="0" id="text-entity-TEAMMEMBERS-a2c7ee65-8b57-564c-a929-02c20242d54f-attr-1-key" class="er entityLabel">PK</text><rect height="22" width="47.1015625" y="46" x="0" class="er attributeBoxEven"></rect><text style="dominant-baseline: middle; font-size: 10.2px;" transform="translate(5,57)" y="0" x="0" id="text-entity-TEAMMEMBERS-a2c7ee65-8b57-564c-a929-02c20242d54f-attr-2-type" class="er entityLabel">text</text><rect height="22" width="72.8125" y="46" x="47.1015625" class="er attributeBoxEven"></rect><text style="dominant-baseline: middle; font-size: 10.2px;" transform="translate(52.1015625,57)" y="0" x="0" id="text-entity-TEAMMEMBERS-a2c7ee65-8b57-564c-a929-02c20242d54f-attr-2-name" class="er entityLabel">name</text><rect height="22" width="21.5625" y="46" x="119.9140625" class="er attributeBoxEven"></rect><text style="dominant-baseline: middle; font-size: 10.2px;" transform="translate(124.9140625,57)" y="0" x="0" id="text-entity-TEAMMEMBERS-a2c7ee65-8b57-564c-a929-02c20242d54f-attr-2-key" class="er entityLabel"></text><rect height="22" width="47.1015625" y="68" x="0" class="er attributeBoxOdd"></rect><text style="dominant-baseline: middle; font-size: 10.2px;" transform="translate(5,79)" y="0" x="0" id="text-entity-TEAMMEMBERS-a2c7ee65-8b57-564c-a929-02c20242d54f-attr-3-type" class="er entityLabel">text</text><rect height="22" width="72.8125" y="68" x="47.1015625" class="er attributeBoxOdd"></rect><text style="dominant-baseline: middle; font-size: 10.2px;" transform="translate(52.1015625,79)" y="0" x="0" id="text-entity-TEAMMEMBERS-a2c7ee65-8b57-564c-a929-02c20242d54f-attr-3-name" class="er entityLabel">email</text><rect height="22" width="21.5625" y="68" x="119.9140625" class="er attributeBoxOdd"></rect><text style="dominant-baseline: middle; font-size: 10.2px;" transform="translate(124.9140625,79)" y="0" x="0" id="text-entity-TEAMMEMBERS-a2c7ee65-8b57-564c-a929-02c20242d54f-attr-3-key" class="er entityLabel"></text><rect height="22" width="47.1015625" y="90" x="0" class="er attributeBoxEven"></rect><text style="dominant-baseline: middle; font-size: 10.2px;" transform="translate(5,101)" y="0" x="0" id="text-entity-TEAMMEMBERS-a2c7ee65-8b57-564c-a929-02c20242d54f-attr-4-type" class="er entityLabel">text</text><rect height="22" width="72.8125" y="90" x="47.1015625" class="er attributeBoxEven"></rect><text style="dominant-baseline: middle; font-size: 10.2px;" transform="translate(52.1015625,101)" y="0" x="0" id="text-entity-TEAMMEMBERS-a2c7ee65-8b57-564c-a929-02c20242d54f-attr-4-name" class="er entityLabel">phone</text><rect height="22" width="21.5625" y="90" x="119.9140625" class="er attributeBoxEven"></rect><text style="dominant-baseline: middle; font-size: 10.2px;" transform="translate(124.9140625,101)" y="0" x="0" id="text-entity-TEAMMEMBERS-a2c7ee65-8b57-564c-a929-02c20242d54f-attr-4-key" class="er entityLabel"></text><rect height="22" width="47.1015625" y="112" x="0" class="er attributeBoxOdd"></rect><text style="dominant-baseline: middle; font-size: 10.2px;" transform="translate(5,123)" y="0" x="0" id="text-entity-TEAMMEMBERS-a2c7ee65-8b57-564c-a929-02c20242d54f-attr-5-type" class="er entityLabel">text</text><rect height="22" width="72.8125" y="112" x="47.1015625" class="er attributeBoxOdd"></rect><text style="dominant-baseline: middle; font-size: 10.2px;" transform="translate(52.1015625,123)" y="0" x="0" id="text-entity-TEAMMEMBERS-a2c7ee65-8b57-564c-a929-02c20242d54f-attr-5-name" class="er entityLabel">role</text><rect height="22" width="21.5625" y="112" x="119.9140625" class="er attributeBoxOdd"></rect><text style="dominant-baseline: middle; font-size: 10.2px;" transform="translate(124.9140625,123)" y="0" x="0" id="text-entity-TEAMMEMBERS-a2c7ee65-8b57-564c-a929-02c20242d54f-attr-5-key" class="er entityLabel"></text><rect height="22" width="47.1015625" y="134" x="0" class="er attributeBoxEven"></rect><text style="dominant-baseline: middle; font-size: 10.2px;" transform="translate(5,145)" y="0" x="0" id="text-entity-TEAMMEMBERS-a2c7ee65-8b57-564c-a929-02c20242d54f-attr-6-type" class="er entityLabel">boolean</text><rect height="22" width="72.8125" y="134" x="47.1015625" class="er attributeBoxEven"></rect><text style="dominant-baseline: middle; font-size: 10.2px;" transform="translate(52.1015625,145)" y="0" x="0" id="text-entity-TEAMMEMBERS-a2c7ee65-8b57-564c-a929-02c20242d54f-attr-6-name" class="er entityLabel">is_freelancer</text><rect height="22" width="21.5625" y="134" x="119.9140625" class="er attributeBoxEven"></rect><text style="dominant-baseline: middle; font-size: 10.2px;" transform="translate(124.9140625,145)" y="0" x="0" id="text-entity-TEAMMEMBERS-a2c7ee65-8b57-564c-a929-02c20242d54f-attr-6-key" class="er entityLabel"></text><rect height="22" width="47.1015625" y="156" x="0" class="er attributeBoxOdd"></rect><text style="dominant-baseline: middle; font-size: 10.2px;" transform="translate(5,167)" y="0" x="0" id="text-entity-TEAMMEMBERS-a2c7ee65-8b57-564c-a929-02c20242d54f-attr-7-type" class="er entityLabel">text</text><rect height="22" width="72.8125" y="156" x="47.1015625" class="er attributeBoxOdd"></rect><text style="dominant-baseline: middle; font-size: 10.2px;" transform="translate(52.1015625,167)" y="0" x="0" id="text-entity-TEAMMEMBERS-a2c7ee65-8b57-564c-a929-02c20242d54f-attr-7-name" class="er entityLabel">specialization</text><rect height="22" width="21.5625" y="156" x="119.9140625" class="er attributeBoxOdd"></rect><text style="dominant-baseline: middle; font-size: 10.2px;" transform="translate(124.9140625,167)" y="0" x="0" id="text-entity-TEAMMEMBERS-a2c7ee65-8b57-564c-a929-02c20242d54f-attr-7-key" class="er entityLabel"></text><rect height="22" width="47.1015625" y="178" x="0" class="er attributeBoxEven"></rect><text style="dominant-baseline: middle; font-size: 10.2px;" transform="translate(5,189)" y="0" x="0" id="text-entity-TEAMMEMBERS-a2c7ee65-8b57-564c-a929-02c20242d54f-attr-8-type" class="er entityLabel">text</text><rect height="22" width="72.8125" y="178" x="47.1015625" class="er attributeBoxEven"></rect><text style="dominant-baseline: middle; font-size: 10.2px;" transform="translate(52.1015625,189)" y="0" x="0" id="text-entity-TEAMMEMBERS-a2c7ee65-8b57-564c-a929-02c20242d54f-attr-8-name" class="er entityLabel">location</text><rect height="22" width="21.5625" y="178" x="119.9140625" class="er attributeBoxEven"></rect><text style="dominant-baseline: middle; font-size: 10.2px;" transform="translate(124.9140625,189)" y="0" x="0" id="text-entity-TEAMMEMBERS-a2c7ee65-8b57-564c-a929-02c20242d54f-attr-8-key" class="er entityLabel"></text><rect height="22" width="47.1015625" y="200" x="0" class="er attributeBoxOdd"></rect><text style="dominant-baseline: middle; font-size: 10.2px;" transform="translate(5,211)" y="0" x="0" id="text-entity-TEAMMEMBERS-a2c7ee65-8b57-564c-a929-02c20242d54f-attr-9-type" class="er entityLabel">numeric</text><rect height="22" width="72.8125" y="200" x="47.1015625" class="er attributeBoxOdd"></rect><text style="dominant-baseline: middle; font-size: 10.2px;" transform="translate(52.1015625,211)" y="0" x="0" id="text-entity-TEAMMEMBERS-a2c7ee65-8b57-564c-a929-02c20242d54f-attr-9-name" class="er entityLabel">rating</text><rect height="22" width="21.5625" y="200" x="119.9140625" class="er attributeBoxOdd"></rect><text style="dominant-baseline: middle; font-size: 10.2px;" transform="translate(124.9140625,211)" y="0" x="0" id="text-entity-TEAMMEMBERS-a2c7ee65-8b57-564c-a929-02c20242d54f-attr-9-key" class="er entityLabel"></text></g><g transform="translate(20,20 )" id="entity-FREELANCERS-7bbaae27-4b9e-5190-8f68-24c763cee0cf"><rect height="178" width="131.5703125" y="0" x="0" class="er entityBox"></rect><text style="dominant-baseline: middle; text-anchor: middle; font-size: 12px;" transform="translate(65.78515625,12)" y="0" x="0" id="text-entity-FREELANCERS-7bbaae27-4b9e-5190-8f68-24c763cee0cf" class="er entityLabel">FREELANCERS</text><rect height="22" width="47.1015625" y="24" x="0" class="er attributeBoxOdd"></rect><text style="dominant-baseline: middle; font-size: 10.2px;" transform="translate(5,35)" y="0" x="0" id="text-entity-FREELANCERS-7bbaae27-4b9e-5190-8f68-24c763cee0cf-attr-1-type" class="er entityLabel">uuid</text><rect height="22" width="62.90625" y="24" x="47.1015625" class="er attributeBoxOdd"></rect><text style="dominant-baseline: middle; font-size: 10.2px;" transform="translate(52.1015625,35)" y="0" x="0" id="text-entity-FREELANCERS-7bbaae27-4b9e-5190-8f68-24c763cee0cf-attr-1-name" class="er entityLabel">id</text><rect height="22" width="21.5625" y="24" x="110.0078125" class="er attributeBoxOdd"></rect><text style="dominant-baseline: middle; font-size: 10.2px;" transform="translate(115.0078125,35)" y="0" x="0" id="text-entity-FREELANCERS-7bbaae27-4b9e-5190-8f68-24c763cee0cf-attr-1-key" class="er entityLabel">PK</text><rect height="22" width="47.1015625" y="46" x="0" class="er attributeBoxEven"></rect><text style="dominant-baseline: middle; font-size: 10.2px;" transform="translate(5,57)" y="0" x="0" id="text-entity-FREELANCERS-7bbaae27-4b9e-5190-8f68-24c763cee0cf-attr-2-type" class="er entityLabel">text</text><rect height="22" width="62.90625" y="46" x="47.1015625" class="er attributeBoxEven"></rect><text style="dominant-baseline: middle; font-size: 10.2px;" transform="translate(52.1015625,57)" y="0" x="0" id="text-entity-FREELANCERS-7bbaae27-4b9e-5190-8f68-24c763cee0cf-attr-2-name" class="er entityLabel">name</text><rect height="22" width="21.5625" y="46" x="110.0078125" class="er attributeBoxEven"></rect><text style="dominant-baseline: middle; font-size: 10.2px;" transform="translate(115.0078125,57)" y="0" x="0" id="text-entity-FREELANCERS-7bbaae27-4b9e-5190-8f68-24c763cee0cf-attr-2-key" class="er entityLabel"></text><rect height="22" width="47.1015625" y="68" x="0" class="er attributeBoxOdd"></rect><text style="dominant-baseline: middle; font-size: 10.2px;" transform="translate(5,79)" y="0" x="0" id="text-entity-FREELANCERS-7bbaae27-4b9e-5190-8f68-24c763cee0cf-attr-3-type" class="er entityLabel">text</text><rect height="22" width="62.90625" y="68" x="47.1015625" class="er attributeBoxOdd"></rect><text style="dominant-baseline: middle; font-size: 10.2px;" transform="translate(52.1015625,79)" y="0" x="0" id="text-entity-FREELANCERS-7bbaae27-4b9e-5190-8f68-24c763cee0cf-attr-3-name" class="er entityLabel">role</text><rect height="22" width="21.5625" y="68" x="110.0078125" class="er attributeBoxOdd"></rect><text style="dominant-baseline: middle; font-size: 10.2px;" transform="translate(115.0078125,79)" y="0" x="0" id="text-entity-FREELANCERS-7bbaae27-4b9e-5190-8f68-24c763cee0cf-attr-3-key" class="er entityLabel"></text><rect height="22" width="47.1015625" y="90" x="0" class="er attributeBoxEven"></rect><text style="dominant-baseline: middle; font-size: 10.2px;" transform="translate(5,101)" y="0" x="0" id="text-entity-FREELANCERS-7bbaae27-4b9e-5190-8f68-24c763cee0cf-attr-4-type" class="er entityLabel">text</text><rect height="22" width="62.90625" y="90" x="47.1015625" class="er attributeBoxEven"></rect><text style="dominant-baseline: middle; font-size: 10.2px;" transform="translate(52.1015625,101)" y="0" x="0" id="text-entity-FREELANCERS-7bbaae27-4b9e-5190-8f68-24c763cee0cf-attr-4-name" class="er entityLabel">location</text><rect height="22" width="21.5625" y="90" x="110.0078125" class="er attributeBoxEven"></rect><text style="dominant-baseline: middle; font-size: 10.2px;" transform="translate(115.0078125,101)" y="0" x="0" id="text-entity-FREELANCERS-7bbaae27-4b9e-5190-8f68-24c763cee0cf-attr-4-key" class="er entityLabel"></text><rect height="22" width="47.1015625" y="112" x="0" class="er attributeBoxOdd"></rect><text style="dominant-baseline: middle; font-size: 10.2px;" transform="translate(5,123)" y="0" x="0" id="text-entity-FREELANCERS-7bbaae27-4b9e-5190-8f68-24c763cee0cf-attr-5-type" class="er entityLabel">numeric</text><rect height="22" width="62.90625" y="112" x="47.1015625" class="er attributeBoxOdd"></rect><text style="dominant-baseline: middle; font-size: 10.2px;" transform="translate(52.1015625,123)" y="0" x="0" id="text-entity-FREELANCERS-7bbaae27-4b9e-5190-8f68-24c763cee0cf-attr-5-name" class="er entityLabel">rating</text><rect height="22" width="21.5625" y="112" x="110.0078125" class="er attributeBoxOdd"></rect><text style="dominant-baseline: middle; font-size: 10.2px;" transform="translate(115.0078125,123)" y="0" x="0" id="text-entity-FREELANCERS-7bbaae27-4b9e-5190-8f68-24c763cee0cf-attr-5-key" class="er entityLabel"></text><rect height="22" width="47.1015625" y="134" x="0" class="er attributeBoxEven"></rect><text style="dominant-baseline: middle; font-size: 10.2px;" transform="translate(5,145)" y="0" x="0" id="text-entity-FREELANCERS-7bbaae27-4b9e-5190-8f68-24c763cee0cf-attr-6-type" class="er entityLabel">text</text><rect height="22" width="62.90625" y="134" x="47.1015625" class="er attributeBoxEven"></rect><text style="dominant-baseline: middle; font-size: 10.2px;" transform="translate(52.1015625,145)" y="0" x="0" id="text-entity-FREELANCERS-7bbaae27-4b9e-5190-8f68-24c763cee0cf-attr-6-name" class="er entityLabel">hourly_rate</text><rect height="22" width="21.5625" y="134" x="110.0078125" class="er attributeBoxEven"></rect><text style="dominant-baseline: middle; font-size: 10.2px;" transform="translate(115.0078125,145)" y="0" x="0" id="text-entity-FREELANCERS-7bbaae27-4b9e-5190-8f68-24c763cee0cf-attr-6-key" class="er entityLabel"></text><rect height="22" width="47.1015625" y="156" x="0" class="er attributeBoxOdd"></rect><text style="dominant-baseline: middle; font-size: 10.2px;" transform="translate(5,167)" y="0" x="0" id="text-entity-FREELANCERS-7bbaae27-4b9e-5190-8f68-24c763cee0cf-attr-7-type" class="er entityLabel">text</text><rect height="22" width="62.90625" y="156" x="47.1015625" class="er attributeBoxOdd"></rect><text style="dominant-baseline: middle; font-size: 10.2px;" transform="translate(52.1015625,167)" y="0" x="0" id="text-entity-FREELANCERS-7bbaae27-4b9e-5190-8f68-24c763cee0cf-attr-7-name" class="er entityLabel">avatar</text><rect height="22" width="21.5625" y="156" x="110.0078125" class="er attributeBoxOdd"></rect><text style="dominant-baseline: middle; font-size: 10.2px;" transform="translate(115.0078125,167)" y="0" x="0" id="text-entity-FREELANCERS-7bbaae27-4b9e-5190-8f68-24c763cee0cf-attr-7-key" class="er entityLabel"></text></g><g transform="translate(251.5703125,20 )" id="entity-JOBPOSTINGS-4bd3770d-88c2-58d1-a530-e0b885bf9747"><rect height="178" width="112.2890625" y="0" x="0" class="er entityBox"></rect><text style="dominant-baseline: middle; text-anchor: middle; font-size: 12px;" transform="translate(56.14453125,12)" y="0" x="0" id="text-entity-JOBPOSTINGS-4bd3770d-88c2-58d1-a530-e0b885bf9747" class="er entityLabel">JOB_POSTINGS</text><rect height="22" width="29.7421875" y="24" x="0" class="er attributeBoxOdd"></rect><text style="dominant-baseline: middle; font-size: 10.2px;" transform="translate(5,35)" y="0" x="0" id="text-entity-JOBPOSTINGS-4bd3770d-88c2-58d1-a530-e0b885bf9747-attr-1-type" class="er entityLabel">uuid</text><rect height="22" width="60.984375" y="24" x="29.7421875" class="er attributeBoxOdd"></rect><text style="dominant-baseline: middle; font-size: 10.2px;" transform="translate(34.7421875,35)" y="0" x="0" id="text-entity-JOBPOSTINGS-4bd3770d-88c2-58d1-a530-e0b885bf9747-attr-1-name" class="er entityLabel">id</text><rect height="22" width="21.5625" y="24" x="90.7265625" class="er attributeBoxOdd"></rect><text style="dominant-baseline: middle; font-size: 10.2px;" transform="translate(95.7265625,35)" y="0" x="0" id="text-entity-JOBPOSTINGS-4bd3770d-88c2-58d1-a530-e0b885bf9747-attr-1-key" class="er entityLabel">PK</text><rect height="22" width="29.7421875" y="46" x="0" class="er attributeBoxEven"></rect><text style="dominant-baseline: middle; font-size: 10.2px;" transform="translate(5,57)" y="0" x="0" id="text-entity-JOBPOSTINGS-4bd3770d-88c2-58d1-a530-e0b885bf9747-attr-2-type" class="er entityLabel">text</text><rect height="22" width="60.984375" y="46" x="29.7421875" class="er attributeBoxEven"></rect><text style="dominant-baseline: middle; font-size: 10.2px;" transform="translate(34.7421875,57)" y="0" x="0" id="text-entity-JOBPOSTINGS-4bd3770d-88c2-58d1-a530-e0b885bf9747-attr-2-name" class="er entityLabel">title</text><rect height="22" width="21.5625" y="46" x="90.7265625" class="er attributeBoxEven"></rect><text style="dominant-baseline: middle; font-size: 10.2px;" transform="translate(95.7265625,57)" y="0" x="0" id="text-entity-JOBPOSTINGS-4bd3770d-88c2-58d1-a530-e0b885bf9747-attr-2-key" class="er entityLabel"></text><rect height="22" width="29.7421875" y="68" x="0" class="er attributeBoxOdd"></rect><text style="dominant-baseline: middle; font-size: 10.2px;" transform="translate(5,79)" y="0" x="0" id="text-entity-JOBPOSTINGS-4bd3770d-88c2-58d1-a530-e0b885bf9747-attr-3-type" class="er entityLabel">text</text><rect height="22" width="60.984375" y="68" x="29.7421875" class="er attributeBoxOdd"></rect><text style="dominant-baseline: middle; font-size: 10.2px;" transform="translate(34.7421875,79)" y="0" x="0" id="text-entity-JOBPOSTINGS-4bd3770d-88c2-58d1-a530-e0b885bf9747-attr-3-name" class="er entityLabel">company</text><rect height="22" width="21.5625" y="68" x="90.7265625" class="er attributeBoxOdd"></rect><text style="dominant-baseline: middle; font-size: 10.2px;" transform="translate(95.7265625,79)" y="0" x="0" id="text-entity-JOBPOSTINGS-4bd3770d-88c2-58d1-a530-e0b885bf9747-attr-3-key" class="er entityLabel"></text><rect height="22" width="29.7421875" y="90" x="0" class="er attributeBoxEven"></rect><text style="dominant-baseline: middle; font-size: 10.2px;" transform="translate(5,101)" y="0" x="0" id="text-entity-JOBPOSTINGS-4bd3770d-88c2-58d1-a530-e0b885bf9747-attr-4-type" class="er entityLabel">text</text><rect height="22" width="60.984375" y="90" x="29.7421875" class="er attributeBoxEven"></rect><text style="dominant-baseline: middle; font-size: 10.2px;" transform="translate(34.7421875,101)" y="0" x="0" id="text-entity-JOBPOSTINGS-4bd3770d-88c2-58d1-a530-e0b885bf9747-attr-4-name" class="er entityLabel">location</text><rect height="22" width="21.5625" y="90" x="90.7265625" class="er attributeBoxEven"></rect><text style="dominant-baseline: middle; font-size: 10.2px;" transform="translate(95.7265625,101)" y="0" x="0" id="text-entity-JOBPOSTINGS-4bd3770d-88c2-58d1-a530-e0b885bf9747-attr-4-key" class="er entityLabel"></text><rect height="22" width="29.7421875" y="112" x="0" class="er attributeBoxOdd"></rect><text style="dominant-baseline: middle; font-size: 10.2px;" transform="translate(5,123)" y="0" x="0" id="text-entity-JOBPOSTINGS-4bd3770d-88c2-58d1-a530-e0b885bf9747-attr-5-type" class="er entityLabel">text</text><rect height="22" width="60.984375" y="112" x="29.7421875" class="er attributeBoxOdd"></rect><text style="dominant-baseline: middle; font-size: 10.2px;" transform="translate(34.7421875,123)" y="0" x="0" id="text-entity-JOBPOSTINGS-4bd3770d-88c2-58d1-a530-e0b885bf9747-attr-5-name" class="er entityLabel">type</text><rect height="22" width="21.5625" y="112" x="90.7265625" class="er attributeBoxOdd"></rect><text style="dominant-baseline: middle; font-size: 10.2px;" transform="translate(95.7265625,123)" y="0" x="0" id="text-entity-JOBPOSTINGS-4bd3770d-88c2-58d1-a530-e0b885bf9747-attr-5-key" class="er entityLabel"></text><rect height="22" width="29.7421875" y="134" x="0" class="er attributeBoxEven"></rect><text style="dominant-baseline: middle; font-size: 10.2px;" transform="translate(5,145)" y="0" x="0" id="text-entity-JOBPOSTINGS-4bd3770d-88c2-58d1-a530-e0b885bf9747-attr-6-type" class="er entityLabel">text</text><rect height="22" width="60.984375" y="134" x="29.7421875" class="er attributeBoxEven"></rect><text style="dominant-baseline: middle; font-size: 10.2px;" transform="translate(34.7421875,145)" y="0" x="0" id="text-entity-JOBPOSTINGS-4bd3770d-88c2-58d1-a530-e0b885bf9747-attr-6-name" class="er entityLabel">budget</text><rect height="22" width="21.5625" y="134" x="90.7265625" class="er attributeBoxEven"></rect><text style="dominant-baseline: middle; font-size: 10.2px;" transform="translate(95.7265625,145)" y="0" x="0" id="text-entity-JOBPOSTINGS-4bd3770d-88c2-58d1-a530-e0b885bf9747-attr-6-key" class="er entityLabel"></text><rect height="22" width="29.7421875" y="156" x="0" class="er attributeBoxOdd"></rect><text style="dominant-baseline: middle; font-size: 10.2px;" transform="translate(5,167)" y="0" x="0" id="text-entity-JOBPOSTINGS-4bd3770d-88c2-58d1-a530-e0b885bf9747-attr-7-type" class="er entityLabel">text</text><rect height="22" width="60.984375" y="156" x="29.7421875" class="er attributeBoxOdd"></rect><text style="dominant-baseline: middle; font-size: 10.2px;" transform="translate(34.7421875,167)" y="0" x="0" id="text-entity-JOBPOSTINGS-4bd3770d-88c2-58d1-a530-e0b885bf9747-attr-7-name" class="er entityLabel">description</text><rect height="22" width="21.5625" y="156" x="90.7265625" class="er attributeBoxOdd"></rect><text style="dominant-baseline: middle; font-size: 10.2px;" transform="translate(95.7265625,167)" y="0" x="0" id="text-entity-JOBPOSTINGS-4bd3770d-88c2-58d1-a530-e0b885bf9747-attr-7-key" class="er entityLabel"></text></g><g transform="translate(463.859375,20 )" id="entity-QUOTEENQUIRIES-6d8c744d-1eaa-5af8-9ec5-59092520a8bd"><rect height="178" width="156.25" y="0" x="0" class="er entityBox"></rect><text style="dominant-baseline: middle; text-anchor: middle; font-size: 12px;" transform="translate(78.125,12)" y="0" x="0" id="text-entity-QUOTEENQUIRIES-6d8c744d-1eaa-5af8-9ec5-59092520a8bd" class="er entityLabel">QUOTE_ENQUIRIES</text><rect height="22" width="47.1015625" y="24" x="0" class="er attributeBoxOdd"></rect><text style="dominant-baseline: middle; font-size: 10.2px;" transform="translate(5,35)" y="0" x="0" id="text-entity-QUOTEENQUIRIES-6d8c744d-1eaa-5af8-9ec5-59092520a8bd-attr-1-type" class="er entityLabel">uuid</text><rect height="22" width="87.5859375" y="24" x="47.1015625" class="er attributeBoxOdd"></rect><text style="dominant-baseline: middle; font-size: 10.2px;" transform="translate(52.1015625,35)" y="0" x="0" id="text-entity-QUOTEENQUIRIES-6d8c744d-1eaa-5af8-9ec5-59092520a8bd-attr-1-name" class="er entityLabel">id</text><rect height="22" width="21.5625" y="24" x="134.6875" class="er attributeBoxOdd"></rect><text style="dominant-baseline: middle; font-size: 10.2px;" transform="translate(139.6875,35)" y="0" x="0" id="text-entity-QUOTEENQUIRIES-6d8c744d-1eaa-5af8-9ec5-59092520a8bd-attr-1-key" class="er entityLabel">PK</text><rect height="22" width="47.1015625" y="46" x="0" class="er attributeBoxEven"></rect><text style="dominant-baseline: middle; font-size: 10.2px;" transform="translate(5,57)" y="0" x="0" id="text-entity-QUOTEENQUIRIES-6d8c744d-1eaa-5af8-9ec5-59092520a8bd-attr-2-type" class="er entityLabel">text</text><rect height="22" width="87.5859375" y="46" x="47.1015625" class="er attributeBoxEven"></rect><text style="dominant-baseline: middle; font-size: 10.2px;" transform="translate(52.1015625,57)" y="0" x="0" id="text-entity-QUOTEENQUIRIES-6d8c744d-1eaa-5af8-9ec5-59092520a8bd-attr-2-name" class="er entityLabel">enquiry_id</text><rect height="22" width="21.5625" y="46" x="134.6875" class="er attributeBoxEven"></rect><text style="dominant-baseline: middle; font-size: 10.2px;" transform="translate(139.6875,57)" y="0" x="0" id="text-entity-QUOTEENQUIRIES-6d8c744d-1eaa-5af8-9ec5-59092520a8bd-attr-2-key" class="er entityLabel"></text><rect height="22" width="47.1015625" y="68" x="0" class="er attributeBoxOdd"></rect><text style="dominant-baseline: middle; font-size: 10.2px;" transform="translate(5,79)" y="0" x="0" id="text-entity-QUOTEENQUIRIES-6d8c744d-1eaa-5af8-9ec5-59092520a8bd-attr-3-type" class="er entityLabel">text</text><rect height="22" width="87.5859375" y="68" x="47.1015625" class="er attributeBoxOdd"></rect><text style="dominant-baseline: middle; font-size: 10.2px;" transform="translate(52.1015625,79)" y="0" x="0" id="text-entity-QUOTEENQUIRIES-6d8c744d-1eaa-5af8-9ec5-59092520a8bd-attr-3-name" class="er entityLabel">request_details</text><rect height="22" width="21.5625" y="68" x="134.6875" class="er attributeBoxOdd"></rect><text style="dominant-baseline: middle; font-size: 10.2px;" transform="translate(139.6875,79)" y="0" x="0" id="text-entity-QUOTEENQUIRIES-6d8c744d-1eaa-5af8-9ec5-59092520a8bd-attr-3-key" class="er entityLabel"></text><rect height="22" width="47.1015625" y="90" x="0" class="er attributeBoxEven"></rect><text style="dominant-baseline: middle; font-size: 10.2px;" transform="translate(5,101)" y="0" x="0" id="text-entity-QUOTEENQUIRIES-6d8c744d-1eaa-5af8-9ec5-59092520a8bd-attr-4-type" class="er entityLabel">date</text><rect height="22" width="87.5859375" y="90" x="47.1015625" class="er attributeBoxEven"></rect><text style="dominant-baseline: middle; font-size: 10.2px;" transform="translate(52.1015625,101)" y="0" x="0" id="text-entity-QUOTEENQUIRIES-6d8c744d-1eaa-5af8-9ec5-59092520a8bd-attr-4-name" class="er entityLabel">shoot_start_date</text><rect height="22" width="21.5625" y="90" x="134.6875" class="er attributeBoxEven"></rect><text style="dominant-baseline: middle; font-size: 10.2px;" transform="translate(139.6875,101)" y="0" x="0" id="text-entity-QUOTEENQUIRIES-6d8c744d-1eaa-5af8-9ec5-59092520a8bd-attr-4-key" class="er entityLabel"></text><rect height="22" width="47.1015625" y="112" x="0" class="er attributeBoxOdd"></rect><text style="dominant-baseline: middle; font-size: 10.2px;" transform="translate(5,123)" y="0" x="0" id="text-entity-QUOTEENQUIRIES-6d8c744d-1eaa-5af8-9ec5-59092520a8bd-attr-5-type" class="er entityLabel">date</text><rect height="22" width="87.5859375" y="112" x="47.1015625" class="er attributeBoxOdd"></rect><text style="dominant-baseline: middle; font-size: 10.2px;" transform="translate(52.1015625,123)" y="0" x="0" id="text-entity-QUOTEENQUIRIES-6d8c744d-1eaa-5af8-9ec5-59092520a8bd-attr-5-name" class="er entityLabel">shoot_end_date</text><rect height="22" width="21.5625" y="112" x="134.6875" class="er attributeBoxOdd"></rect><text style="dominant-baseline: middle; font-size: 10.2px;" transform="translate(139.6875,123)" y="0" x="0" id="text-entity-QUOTEENQUIRIES-6d8c744d-1eaa-5af8-9ec5-59092520a8bd-attr-5-key" class="er entityLabel"></text><rect height="22" width="47.1015625" y="134" x="0" class="er attributeBoxEven"></rect><text style="dominant-baseline: middle; font-size: 10.2px;" transform="translate(5,145)" y="0" x="0" id="text-entity-QUOTEENQUIRIES-6d8c744d-1eaa-5af8-9ec5-59092520a8bd-attr-6-type" class="er entityLabel">numeric</text><rect height="22" width="87.5859375" y="134" x="47.1015625" class="er attributeBoxEven"></rect><text style="dominant-baseline: middle; font-size: 10.2px;" transform="translate(52.1015625,145)" y="0" x="0" id="text-entity-QUOTEENQUIRIES-6d8c744d-1eaa-5af8-9ec5-59092520a8bd-attr-6-name" class="er entityLabel">quote_amount</text><rect height="22" width="21.5625" y="134" x="134.6875" class="er attributeBoxEven"></rect><text style="dominant-baseline: middle; font-size: 10.2px;" transform="translate(139.6875,145)" y="0" x="0" id="text-entity-QUOTEENQUIRIES-6d8c744d-1eaa-5af8-9ec5-59092520a8bd-attr-6-key" class="er entityLabel"></text><rect height="22" width="47.1015625" y="156" x="0" class="er attributeBoxOdd"></rect><text style="dominant-baseline: middle; font-size: 10.2px;" transform="translate(5,167)" y="0" x="0" id="text-entity-QUOTEENQUIRIES-6d8c744d-1eaa-5af8-9ec5-59092520a8bd-attr-7-type" class="er entityLabel">uuid</text><rect height="22" width="87.5859375" y="156" x="47.1015625" class="er attributeBoxOdd"></rect><text style="dominant-baseline: middle; font-size: 10.2px;" transform="translate(52.1015625,167)" y="0" x="0" id="text-entity-QUOTEENQUIRIES-6d8c744d-1eaa-5af8-9ec5-59092520a8bd-attr-7-name" class="er entityLabel">photographer_id</text><rect height="22" width="21.5625" y="156" x="134.6875" class="er attributeBoxOdd"></rect><text style="dominant-baseline: middle; font-size: 10.2px;" transform="translate(139.6875,167)" y="0" x="0" id="text-entity-QUOTEENQUIRIES-6d8c744d-1eaa-5af8-9ec5-59092520a8bd-attr-7-key" class="er entityLabel">FK</text></g><rect height="14" width="88.7265625" y="241" x="497.6207275390625" class="er relationshipLabelBox"></rect><text style="text-anchor: middle; dominant-baseline: middle; font-size: 12px;" y="248" x="541.9840087890625" id="rel53" class="er relationshipLabel">photographer_id</text><text class="entityTitleText" y="-25" x="320.0546875" text-anchor="middle">🧑‍💼 5️⃣ Team &amp; HR Domain</text></svg>