<?xml version="1.0" encoding="UTF-8"?>
<?xml-stylesheet href="https://cdnjs.cloudflare.com/ajax/libs/font-awesome/6.5.1/css/all.min.css" type="text/css"?>
<svg aria-roledescription="er" role="graphics-document document" viewBox="0 -62 669.9776611328125 792" style="max-width: 100%; max-height: 100%; background: white; color: rgb(51, 51, 51);" xmlns="http://www.w3.org/2000/svg" width="100%" id="mermaid-image-editor"><style>#mermaid-image-editor{font-family:"trebuchet ms",verdana,arial,sans-serif;font-size:16px;fill:#333;}#mermaid-image-editor .error-icon{fill:#552222;}#mermaid-image-editor .error-text{fill:#552222;stroke:#552222;}#mermaid-image-editor .edge-thickness-normal{stroke-width:1px;}#mermaid-image-editor .edge-thickness-thick{stroke-width:3.5px;}#mermaid-image-editor .edge-pattern-solid{stroke-dasharray:0;}#mermaid-image-editor .edge-thickness-invisible{stroke-width:0;fill:none;}#mermaid-image-editor .edge-pattern-dashed{stroke-dasharray:3;}#mermaid-image-editor .edge-pattern-dotted{stroke-dasharray:2;}#mermaid-image-editor .marker{fill:#333333;stroke:#333333;}#mermaid-image-editor .marker.cross{stroke:#333333;}#mermaid-image-editor svg{font-family:"trebuchet ms",verdana,arial,sans-serif;font-size:16px;}#mermaid-image-editor p{margin:0;}#mermaid-image-editor .entityBox{fill:#ECECFF;stroke:#9370DB;}#mermaid-image-editor .attributeBoxOdd{fill:#ffffff;stroke:#9370DB;}#mermaid-image-editor .attributeBoxEven{fill:#f2f2f2;stroke:#9370DB;}#mermaid-image-editor .relationshipLabelBox{fill:hsl(80, 100%, 96.2745098039%);opacity:0.7;background-color:hsl(80, 100%, 96.2745098039%);}#mermaid-image-editor .relationshipLabelBox rect{opacity:0.5;}#mermaid-image-editor .relationshipLine{stroke:#333333;}#mermaid-image-editor .entityTitleText{text-anchor:middle;font-size:18px;fill:#333;}#mermaid-image-editor #MD_PARENT_START{fill:#f5f5f5!important;stroke:#333333!important;stroke-width:1;}#mermaid-image-editor #MD_PARENT_END{fill:#f5f5f5!important;stroke:#333333!important;stroke-width:1;}#mermaid-image-editor :root{--mermaid-font-family:"trebuchet ms",verdana,arial,sans-serif;}</style><g></g><defs><marker orient="auto" markerHeight="240" markerWidth="190" refY="7" refX="0" id="MD_PARENT_START"><path d="M 18,7 L9,13 L1,7 L9,1 Z"></path></marker></defs><defs><marker orient="auto" markerHeight="28" markerWidth="20" refY="7" refX="19" id="MD_PARENT_END"><path d="M 18,7 L9,13 L1,7 L9,1 Z"></path></marker></defs><defs><marker orient="auto" markerHeight="18" markerWidth="18" refY="9" refX="0" id="ONLY_ONE_START"><path d="M9,0 L9,18 M15,0 L15,18" fill="none" stroke="gray"></path></marker></defs><defs><marker orient="auto" markerHeight="18" markerWidth="18" refY="9" refX="18" id="ONLY_ONE_END"><path d="M3,0 L3,18 M9,0 L9,18" fill="none" stroke="gray"></path></marker></defs><defs><marker orient="auto" markerHeight="18" markerWidth="30" refY="9" refX="0" id="ZERO_OR_ONE_START"><circle r="6" cy="9" cx="21" fill="white" stroke="gray"></circle><path d="M9,0 L9,18" fill="none" stroke="gray"></path></marker></defs><defs><marker orient="auto" markerHeight="18" markerWidth="30" refY="9" refX="30" id="ZERO_OR_ONE_END"><circle r="6" cy="9" cx="9" fill="white" stroke="gray"></circle><path d="M21,0 L21,18" fill="none" stroke="gray"></path></marker></defs><defs><marker orient="auto" markerHeight="36" markerWidth="45" refY="18" refX="18" id="ONE_OR_MORE_START"><path d="M0,18 Q 18,0 36,18 Q 18,36 0,18 M42,9 L42,27" fill="none" stroke="gray"></path></marker></defs><defs><marker orient="auto" markerHeight="36" markerWidth="45" refY="18" refX="27" id="ONE_OR_MORE_END"><path d="M3,9 L3,27 M9,18 Q27,0 45,18 Q27,36 9,18" fill="none" stroke="gray"></path></marker></defs><defs><marker orient="auto" markerHeight="36" markerWidth="57" refY="18" refX="18" id="ZERO_OR_MORE_START"><circle r="6" cy="18" cx="48" fill="white" stroke="gray"></circle><path d="M0,18 Q18,0 36,18 Q18,36 0,18" fill="none" stroke="gray"></path></marker></defs><defs><marker orient="auto" markerHeight="36" markerWidth="57" refY="18" refX="39" id="ZERO_OR_MORE_END"><circle r="6" cy="18" cx="9" fill="white" stroke="gray"></circle><path d="M21,18 Q39,0 57,18 Q39,36 21,18" fill="none" stroke="gray"></path></marker></defs><path style="stroke: gray; fill: none;" marker-start="url(#ZERO_OR_MORE_START)" marker-end="url(#ONLY_ONE_END)" d="M91.625,154L91.625,162.333C91.625,170.667,91.625,187.333,91.625,204C91.625,220.667,91.625,237.333,91.625,245.667L91.625,254" class="er relationshipLine"></path><path style="stroke: gray; fill: none;" marker-start="url(#ZERO_OR_MORE_START)" marker-end="url(#ONLY_ONE_END)" d="M374.254,421L374.254,434.833C374.254,448.667,374.254,476.333,379.526,498.5C384.797,520.667,395.341,537.333,400.613,545.667L405.885,554" class="er relationshipLine"></path><path style="stroke: gray; fill: none;" marker-start="url(#ZERO_OR_MORE_START)" marker-end="url(#ONLY_ONE_END)" d="M324.254,132L324.254,144C324.254,156,324.254,180,328.865,205.833C333.476,231.667,342.698,259.333,347.309,273.167L351.921,287" class="er relationshipLine"></path><path style="stroke: gray; fill: none;" marker-start="url(#ZERO_OR_MORE_START)" marker-end="url(#ONLY_ONE_END)" d="M597.518,143L601.862,153.167C606.207,163.333,614.896,183.667,619.241,218.833C623.586,254,623.586,304,623.586,354C623.586,404,623.586,454,606.707,491.833C589.827,529.666,556.069,555.332,539.19,568.165L522.311,580.998" class="er relationshipLine"></path><path style="stroke: gray; fill: none;" marker-start="url(#ZERO_OR_MORE_START)" marker-end="url(#ONLY_ONE_END)" d="M534.829,143L527.793,153.167C520.756,163.333,506.684,183.667,488.732,207.667C470.781,231.667,448.951,259.333,438.035,273.167L427.12,287" class="er relationshipLine"></path><g transform="translate(31.69140625,254 )" id="entity-PORTFOLIOS-b02af1c2-f774-5b9d-b29d-3b960962db6a"><rect height="200" width="119.8671875" y="0" x="0" class="er entityBox"></rect><text style="dominant-baseline: middle; text-anchor: middle; font-size: 12px;" transform="translate(59.93359375,12)" y="0" x="0" id="text-entity-PORTFOLIOS-b02af1c2-f774-5b9d-b29d-3b960962db6a" class="er entityLabel">PORTFOLIOS</text><rect height="22" width="36.2578125" y="24" x="0" class="er attributeBoxOdd"></rect><text style="dominant-baseline: middle; font-size: 10.2px;" transform="translate(5,35)" y="0" x="0" id="text-entity-PORTFOLIOS-b02af1c2-f774-5b9d-b29d-3b960962db6a-attr-1-type" class="er entityLabel">uuid</text><rect height="22" width="62.046875" y="24" x="36.2578125" class="er attributeBoxOdd"></rect><text style="dominant-baseline: middle; font-size: 10.2px;" transform="translate(41.2578125,35)" y="0" x="0" id="text-entity-PORTFOLIOS-b02af1c2-f774-5b9d-b29d-3b960962db6a-attr-1-name" class="er entityLabel">id</text><rect height="22" width="21.5625" y="24" x="98.3046875" class="er attributeBoxOdd"></rect><text style="dominant-baseline: middle; font-size: 10.2px;" transform="translate(103.3046875,35)" y="0" x="0" id="text-entity-PORTFOLIOS-b02af1c2-f774-5b9d-b29d-3b960962db6a-attr-1-key" class="er entityLabel">PK</text><rect height="22" width="36.2578125" y="46" x="0" class="er attributeBoxEven"></rect><text style="dominant-baseline: middle; font-size: 10.2px;" transform="translate(5,57)" y="0" x="0" id="text-entity-PORTFOLIOS-b02af1c2-f774-5b9d-b29d-3b960962db6a-attr-2-type" class="er entityLabel">uuid</text><rect height="22" width="62.046875" y="46" x="36.2578125" class="er attributeBoxEven"></rect><text style="dominant-baseline: middle; font-size: 10.2px;" transform="translate(41.2578125,57)" y="0" x="0" id="text-entity-PORTFOLIOS-b02af1c2-f774-5b9d-b29d-3b960962db6a-attr-2-name" class="er entityLabel">user_id</text><rect height="22" width="21.5625" y="46" x="98.3046875" class="er attributeBoxEven"></rect><text style="dominant-baseline: middle; font-size: 10.2px;" transform="translate(103.3046875,57)" y="0" x="0" id="text-entity-PORTFOLIOS-b02af1c2-f774-5b9d-b29d-3b960962db6a-attr-2-key" class="er entityLabel">FK</text><rect height="22" width="36.2578125" y="68" x="0" class="er attributeBoxOdd"></rect><text style="dominant-baseline: middle; font-size: 10.2px;" transform="translate(5,79)" y="0" x="0" id="text-entity-PORTFOLIOS-b02af1c2-f774-5b9d-b29d-3b960962db6a-attr-3-type" class="er entityLabel">text</text><rect height="22" width="62.046875" y="68" x="36.2578125" class="er attributeBoxOdd"></rect><text style="dominant-baseline: middle; font-size: 10.2px;" transform="translate(41.2578125,79)" y="0" x="0" id="text-entity-PORTFOLIOS-b02af1c2-f774-5b9d-b29d-3b960962db6a-attr-3-name" class="er entityLabel">name</text><rect height="22" width="21.5625" y="68" x="98.3046875" class="er attributeBoxOdd"></rect><text style="dominant-baseline: middle; font-size: 10.2px;" transform="translate(103.3046875,79)" y="0" x="0" id="text-entity-PORTFOLIOS-b02af1c2-f774-5b9d-b29d-3b960962db6a-attr-3-key" class="er entityLabel"></text><rect height="22" width="36.2578125" y="90" x="0" class="er attributeBoxEven"></rect><text style="dominant-baseline: middle; font-size: 10.2px;" transform="translate(5,101)" y="0" x="0" id="text-entity-PORTFOLIOS-b02af1c2-f774-5b9d-b29d-3b960962db6a-attr-4-type" class="er entityLabel">text</text><rect height="22" width="62.046875" y="90" x="36.2578125" class="er attributeBoxEven"></rect><text style="dominant-baseline: middle; font-size: 10.2px;" transform="translate(41.2578125,101)" y="0" x="0" id="text-entity-PORTFOLIOS-b02af1c2-f774-5b9d-b29d-3b960962db6a-attr-4-name" class="er entityLabel">tagline</text><rect height="22" width="21.5625" y="90" x="98.3046875" class="er attributeBoxEven"></rect><text style="dominant-baseline: middle; font-size: 10.2px;" transform="translate(103.3046875,101)" y="0" x="0" id="text-entity-PORTFOLIOS-b02af1c2-f774-5b9d-b29d-3b960962db6a-attr-4-key" class="er entityLabel"></text><rect height="22" width="36.2578125" y="112" x="0" class="er attributeBoxOdd"></rect><text style="dominant-baseline: middle; font-size: 10.2px;" transform="translate(5,123)" y="0" x="0" id="text-entity-PORTFOLIOS-b02af1c2-f774-5b9d-b29d-3b960962db6a-attr-5-type" class="er entityLabel">text</text><rect height="22" width="62.046875" y="112" x="36.2578125" class="er attributeBoxOdd"></rect><text style="dominant-baseline: middle; font-size: 10.2px;" transform="translate(41.2578125,123)" y="0" x="0" id="text-entity-PORTFOLIOS-b02af1c2-f774-5b9d-b29d-3b960962db6a-attr-5-name" class="er entityLabel">about</text><rect height="22" width="21.5625" y="112" x="98.3046875" class="er attributeBoxOdd"></rect><text style="dominant-baseline: middle; font-size: 10.2px;" transform="translate(103.3046875,123)" y="0" x="0" id="text-entity-PORTFOLIOS-b02af1c2-f774-5b9d-b29d-3b960962db6a-attr-5-key" class="er entityLabel"></text><rect height="22" width="36.2578125" y="134" x="0" class="er attributeBoxEven"></rect><text style="dominant-baseline: middle; font-size: 10.2px;" transform="translate(5,145)" y="0" x="0" id="text-entity-PORTFOLIOS-b02af1c2-f774-5b9d-b29d-3b960962db6a-attr-6-type" class="er entityLabel">text[]</text><rect height="22" width="62.046875" y="134" x="36.2578125" class="er attributeBoxEven"></rect><text style="dominant-baseline: middle; font-size: 10.2px;" transform="translate(41.2578125,145)" y="0" x="0" id="text-entity-PORTFOLIOS-b02af1c2-f774-5b9d-b29d-3b960962db6a-attr-6-name" class="er entityLabel">services</text><rect height="22" width="21.5625" y="134" x="98.3046875" class="er attributeBoxEven"></rect><text style="dominant-baseline: middle; font-size: 10.2px;" transform="translate(103.3046875,145)" y="0" x="0" id="text-entity-PORTFOLIOS-b02af1c2-f774-5b9d-b29d-3b960962db6a-attr-6-key" class="er entityLabel"></text><rect height="22" width="36.2578125" y="156" x="0" class="er attributeBoxOdd"></rect><text style="dominant-baseline: middle; font-size: 10.2px;" transform="translate(5,167)" y="0" x="0" id="text-entity-PORTFOLIOS-b02af1c2-f774-5b9d-b29d-3b960962db6a-attr-7-type" class="er entityLabel">jsonb</text><rect height="22" width="62.046875" y="156" x="36.2578125" class="er attributeBoxOdd"></rect><text style="dominant-baseline: middle; font-size: 10.2px;" transform="translate(41.2578125,167)" y="0" x="0" id="text-entity-PORTFOLIOS-b02af1c2-f774-5b9d-b29d-3b960962db6a-attr-7-name" class="er entityLabel">contact</text><rect height="22" width="21.5625" y="156" x="98.3046875" class="er attributeBoxOdd"></rect><text style="dominant-baseline: middle; font-size: 10.2px;" transform="translate(103.3046875,167)" y="0" x="0" id="text-entity-PORTFOLIOS-b02af1c2-f774-5b9d-b29d-3b960962db6a-attr-7-key" class="er entityLabel"></text><rect height="22" width="36.2578125" y="178" x="0" class="er attributeBoxEven"></rect><text style="dominant-baseline: middle; font-size: 10.2px;" transform="translate(5,189)" y="0" x="0" id="text-entity-PORTFOLIOS-b02af1c2-f774-5b9d-b29d-3b960962db6a-attr-8-type" class="er entityLabel">jsonb</text><rect height="22" width="62.046875" y="178" x="36.2578125" class="er attributeBoxEven"></rect><text style="dominant-baseline: middle; font-size: 10.2px;" transform="translate(41.2578125,189)" y="0" x="0" id="text-entity-PORTFOLIOS-b02af1c2-f774-5b9d-b29d-3b960962db6a-attr-8-name" class="er entityLabel">social_links</text><rect height="22" width="21.5625" y="178" x="98.3046875" class="er attributeBoxEven"></rect><text style="dominant-baseline: middle; font-size: 10.2px;" transform="translate(103.3046875,189)" y="0" x="0" id="text-entity-PORTFOLIOS-b02af1c2-f774-5b9d-b29d-3b960962db6a-attr-8-key" class="er entityLabel"></text></g><g transform="translate(20,20 )" id="entity-PORTFOLIOGALLERY-b44a7ca4-cb33-5f8e-88bc-1faf94da62eb"><rect height="134" width="143.25" y="0" x="0" class="er entityBox"></rect><text style="dominant-baseline: middle; text-anchor: middle; font-size: 12px;" transform="translate(71.625,12)" y="0" x="0" id="text-entity-PORTFOLIOGALLERY-b44a7ca4-cb33-5f8e-88bc-1faf94da62eb" class="er entityLabel">PORTFOLIO_GALLERY</text><rect height="22" width="39.143229166666664" y="24" x="0" class="er attributeBoxOdd"></rect><text style="dominant-baseline: middle; font-size: 10.2px;" transform="translate(5,35)" y="0" x="0" id="text-entity-PORTFOLIOGALLERY-b44a7ca4-cb33-5f8e-88bc-1faf94da62eb-attr-1-type" class="er entityLabel">uuid</text><rect height="22" width="73.14322916666667" y="24" x="39.143229166666664" class="er attributeBoxOdd"></rect><text style="dominant-baseline: middle; font-size: 10.2px;" transform="translate(44.143229166666664,35)" y="0" x="0" id="text-entity-PORTFOLIOGALLERY-b44a7ca4-cb33-5f8e-88bc-1faf94da62eb-attr-1-name" class="er entityLabel">id</text><rect height="22" width="30.963541666666664" y="24" x="112.28645833333334" class="er attributeBoxOdd"></rect><text style="dominant-baseline: middle; font-size: 10.2px;" transform="translate(117.28645833333334,35)" y="0" x="0" id="text-entity-PORTFOLIOGALLERY-b44a7ca4-cb33-5f8e-88bc-1faf94da62eb-attr-1-key" class="er entityLabel">PK</text><rect height="22" width="39.143229166666664" y="46" x="0" class="er attributeBoxEven"></rect><text style="dominant-baseline: middle; font-size: 10.2px;" transform="translate(5,57)" y="0" x="0" id="text-entity-PORTFOLIOGALLERY-b44a7ca4-cb33-5f8e-88bc-1faf94da62eb-attr-2-type" class="er entityLabel">uuid</text><rect height="22" width="73.14322916666667" y="46" x="39.143229166666664" class="er attributeBoxEven"></rect><text style="dominant-baseline: middle; font-size: 10.2px;" transform="translate(44.143229166666664,57)" y="0" x="0" id="text-entity-PORTFOLIOGALLERY-b44a7ca4-cb33-5f8e-88bc-1faf94da62eb-attr-2-name" class="er entityLabel">portfolio_id</text><rect height="22" width="30.963541666666664" y="46" x="112.28645833333334" class="er attributeBoxEven"></rect><text style="dominant-baseline: middle; font-size: 10.2px;" transform="translate(117.28645833333334,57)" y="0" x="0" id="text-entity-PORTFOLIOGALLERY-b44a7ca4-cb33-5f8e-88bc-1faf94da62eb-attr-2-key" class="er entityLabel">FK</text><rect height="22" width="39.143229166666664" y="68" x="0" class="er attributeBoxOdd"></rect><text style="dominant-baseline: middle; font-size: 10.2px;" transform="translate(5,79)" y="0" x="0" id="text-entity-PORTFOLIOGALLERY-b44a7ca4-cb33-5f8e-88bc-1faf94da62eb-attr-3-type" class="er entityLabel">text</text><rect height="22" width="73.14322916666667" y="68" x="39.143229166666664" class="er attributeBoxOdd"></rect><text style="dominant-baseline: middle; font-size: 10.2px;" transform="translate(44.143229166666664,79)" y="0" x="0" id="text-entity-PORTFOLIOGALLERY-b44a7ca4-cb33-5f8e-88bc-1faf94da62eb-attr-3-name" class="er entityLabel">url</text><rect height="22" width="30.963541666666664" y="68" x="112.28645833333334" class="er attributeBoxOdd"></rect><text style="dominant-baseline: middle; font-size: 10.2px;" transform="translate(117.28645833333334,79)" y="0" x="0" id="text-entity-PORTFOLIOGALLERY-b44a7ca4-cb33-5f8e-88bc-1faf94da62eb-attr-3-key" class="er entityLabel"></text><rect height="22" width="39.143229166666664" y="90" x="0" class="er attributeBoxEven"></rect><text style="dominant-baseline: middle; font-size: 10.2px;" transform="translate(5,101)" y="0" x="0" id="text-entity-PORTFOLIOGALLERY-b44a7ca4-cb33-5f8e-88bc-1faf94da62eb-attr-4-type" class="er entityLabel">text</text><rect height="22" width="73.14322916666667" y="90" x="39.143229166666664" class="er attributeBoxEven"></rect><text style="dominant-baseline: middle; font-size: 10.2px;" transform="translate(44.143229166666664,101)" y="0" x="0" id="text-entity-PORTFOLIOGALLERY-b44a7ca4-cb33-5f8e-88bc-1faf94da62eb-attr-4-name" class="er entityLabel">title</text><rect height="22" width="30.963541666666664" y="90" x="112.28645833333334" class="er attributeBoxEven"></rect><text style="dominant-baseline: middle; font-size: 10.2px;" transform="translate(117.28645833333334,101)" y="0" x="0" id="text-entity-PORTFOLIOGALLERY-b44a7ca4-cb33-5f8e-88bc-1faf94da62eb-attr-4-key" class="er entityLabel"></text><rect height="22" width="39.143229166666664" y="112" x="0" class="er attributeBoxOdd"></rect><text style="dominant-baseline: middle; font-size: 10.2px;" transform="translate(5,123)" y="0" x="0" id="text-entity-PORTFOLIOGALLERY-b44a7ca4-cb33-5f8e-88bc-1faf94da62eb-attr-5-type" class="er entityLabel">text</text><rect height="22" width="73.14322916666667" y="112" x="39.143229166666664" class="er attributeBoxOdd"></rect><text style="dominant-baseline: middle; font-size: 10.2px;" transform="translate(44.143229166666664,123)" y="0" x="0" id="text-entity-PORTFOLIOGALLERY-b44a7ca4-cb33-5f8e-88bc-1faf94da62eb-attr-5-name" class="er entityLabel">category</text><rect height="22" width="30.963541666666664" y="112" x="112.28645833333334" class="er attributeBoxOdd"></rect><text style="dominant-baseline: middle; font-size: 10.2px;" transform="translate(117.28645833333334,123)" y="0" x="0" id="text-entity-PORTFOLIOGALLERY-b44a7ca4-cb33-5f8e-88bc-1faf94da62eb-attr-5-key" class="er entityLabel"></text></g><g transform="translate(388.146484375,554 )" id="entity-PHOTOGALLERIES-c4cbd562-049e-525a-97cb-0f5636a47c75"><rect height="156" width="134.1640625" y="0" x="0" class="er entityBox"></rect><text style="dominant-baseline: middle; text-anchor: middle; font-size: 12px;" transform="translate(67.08203125,12)" y="0" x="0" id="text-entity-PHOTOGALLERIES-c4cbd562-049e-525a-97cb-0f5636a47c75" class="er entityLabel">PHOTO_GALLERIES</text><rect height="22" width="46.140625" y="24" x="0" class="er attributeBoxOdd"></rect><text style="dominant-baseline: middle; font-size: 10.2px;" transform="translate(5,35)" y="0" x="0" id="text-entity-PHOTOGALLERIES-c4cbd562-049e-525a-97cb-0f5636a47c75-attr-1-type" class="er entityLabel">uuid</text><rect height="22" width="66.4609375" y="24" x="46.140625" class="er attributeBoxOdd"></rect><text style="dominant-baseline: middle; font-size: 10.2px;" transform="translate(51.140625,35)" y="0" x="0" id="text-entity-PHOTOGALLERIES-c4cbd562-049e-525a-97cb-0f5636a47c75-attr-1-name" class="er entityLabel">id</text><rect height="22" width="21.5625" y="24" x="112.6015625" class="er attributeBoxOdd"></rect><text style="dominant-baseline: middle; font-size: 10.2px;" transform="translate(117.6015625,35)" y="0" x="0" id="text-entity-PHOTOGALLERIES-c4cbd562-049e-525a-97cb-0f5636a47c75-attr-1-key" class="er entityLabel">PK</text><rect height="22" width="46.140625" y="46" x="0" class="er attributeBoxEven"></rect><text style="dominant-baseline: middle; font-size: 10.2px;" transform="translate(5,57)" y="0" x="0" id="text-entity-PHOTOGALLERIES-c4cbd562-049e-525a-97cb-0f5636a47c75-attr-2-type" class="er entityLabel">text</text><rect height="22" width="66.4609375" y="46" x="46.140625" class="er attributeBoxEven"></rect><text style="dominant-baseline: middle; font-size: 10.2px;" transform="translate(51.140625,57)" y="0" x="0" id="text-entity-PHOTOGALLERIES-c4cbd562-049e-525a-97cb-0f5636a47c75-attr-2-name" class="er entityLabel">client_name</text><rect height="22" width="21.5625" y="46" x="112.6015625" class="er attributeBoxEven"></rect><text style="dominant-baseline: middle; font-size: 10.2px;" transform="translate(117.6015625,57)" y="0" x="0" id="text-entity-PHOTOGALLERIES-c4cbd562-049e-525a-97cb-0f5636a47c75-attr-2-key" class="er entityLabel"></text><rect height="22" width="46.140625" y="68" x="0" class="er attributeBoxOdd"></rect><text style="dominant-baseline: middle; font-size: 10.2px;" transform="translate(5,79)" y="0" x="0" id="text-entity-PHOTOGALLERIES-c4cbd562-049e-525a-97cb-0f5636a47c75-attr-3-type" class="er entityLabel">text</text><rect height="22" width="66.4609375" y="68" x="46.140625" class="er attributeBoxOdd"></rect><text style="dominant-baseline: middle; font-size: 10.2px;" transform="translate(51.140625,79)" y="0" x="0" id="text-entity-PHOTOGALLERIES-c4cbd562-049e-525a-97cb-0f5636a47c75-attr-3-name" class="er entityLabel">event_id</text><rect height="22" width="21.5625" y="68" x="112.6015625" class="er attributeBoxOdd"></rect><text style="dominant-baseline: middle; font-size: 10.2px;" transform="translate(117.6015625,79)" y="0" x="0" id="text-entity-PHOTOGALLERIES-c4cbd562-049e-525a-97cb-0f5636a47c75-attr-3-key" class="er entityLabel"></text><rect height="22" width="46.140625" y="90" x="0" class="er attributeBoxEven"></rect><text style="dominant-baseline: middle; font-size: 10.2px;" transform="translate(5,101)" y="0" x="0" id="text-entity-PHOTOGALLERIES-c4cbd562-049e-525a-97cb-0f5636a47c75-attr-4-type" class="er entityLabel">text</text><rect height="22" width="66.4609375" y="90" x="46.140625" class="er attributeBoxEven"></rect><text style="dominant-baseline: middle; font-size: 10.2px;" transform="translate(51.140625,101)" y="0" x="0" id="text-entity-PHOTOGALLERIES-c4cbd562-049e-525a-97cb-0f5636a47c75-attr-4-name" class="er entityLabel">name</text><rect height="22" width="21.5625" y="90" x="112.6015625" class="er attributeBoxEven"></rect><text style="dominant-baseline: middle; font-size: 10.2px;" transform="translate(117.6015625,101)" y="0" x="0" id="text-entity-PHOTOGALLERIES-c4cbd562-049e-525a-97cb-0f5636a47c75-attr-4-key" class="er entityLabel"></text><rect height="22" width="46.140625" y="112" x="0" class="er attributeBoxOdd"></rect><text style="dominant-baseline: middle; font-size: 10.2px;" transform="translate(5,123)" y="0" x="0" id="text-entity-PHOTOGALLERIES-c4cbd562-049e-525a-97cb-0f5636a47c75-attr-5-type" class="er entityLabel">boolean</text><rect height="22" width="66.4609375" y="112" x="46.140625" class="er attributeBoxOdd"></rect><text style="dominant-baseline: middle; font-size: 10.2px;" transform="translate(51.140625,123)" y="0" x="0" id="text-entity-PHOTOGALLERIES-c4cbd562-049e-525a-97cb-0f5636a47c75-attr-5-name" class="er entityLabel">is_folder</text><rect height="22" width="21.5625" y="112" x="112.6015625" class="er attributeBoxOdd"></rect><text style="dominant-baseline: middle; font-size: 10.2px;" transform="translate(117.6015625,123)" y="0" x="0" id="text-entity-PHOTOGALLERIES-c4cbd562-049e-525a-97cb-0f5636a47c75-attr-5-key" class="er entityLabel"></text><rect height="22" width="46.140625" y="134" x="0" class="er attributeBoxEven"></rect><text style="dominant-baseline: middle; font-size: 10.2px;" transform="translate(5,145)" y="0" x="0" id="text-entity-PHOTOGALLERIES-c4cbd562-049e-525a-97cb-0f5636a47c75-attr-6-type" class="er entityLabel">uuid</text><rect height="22" width="66.4609375" y="134" x="46.140625" class="er attributeBoxEven"></rect><text style="dominant-baseline: middle; font-size: 10.2px;" transform="translate(51.140625,145)" y="0" x="0" id="text-entity-PHOTOGALLERIES-c4cbd562-049e-525a-97cb-0f5636a47c75-attr-6-name" class="er entityLabel">parent_id</text><rect height="22" width="21.5625" y="134" x="112.6015625" class="er attributeBoxEven"></rect><text style="dominant-baseline: middle; font-size: 10.2px;" transform="translate(117.6015625,145)" y="0" x="0" id="text-entity-PHOTOGALLERIES-c4cbd562-049e-525a-97cb-0f5636a47c75-attr-6-key" class="er entityLabel">FK</text></g><g transform="translate(312.3046875,287 )" id="entity-PHOTOS-84257347-2ca4-548a-a417-2c97f096a4a0"><rect height="134" width="123.8984375" y="0" x="0" class="er entityBox"></rect><text style="dominant-baseline: middle; text-anchor: middle; font-size: 12px;" transform="translate(61.94921875,12)" y="0" x="0" id="text-entity-PHOTOS-84257347-2ca4-548a-a417-2c97f096a4a0" class="er entityLabel">PHOTOS</text><rect height="22" width="46.140625" y="24" x="0" class="er attributeBoxOdd"></rect><text style="dominant-baseline: middle; font-size: 10.2px;" transform="translate(5,35)" y="0" x="0" id="text-entity-PHOTOS-84257347-2ca4-548a-a417-2c97f096a4a0-attr-1-type" class="er entityLabel">uuid</text><rect height="22" width="56.1953125" y="24" x="46.140625" class="er attributeBoxOdd"></rect><text style="dominant-baseline: middle; font-size: 10.2px;" transform="translate(51.140625,35)" y="0" x="0" id="text-entity-PHOTOS-84257347-2ca4-548a-a417-2c97f096a4a0-attr-1-name" class="er entityLabel">id</text><rect height="22" width="21.5625" y="24" x="102.3359375" class="er attributeBoxOdd"></rect><text style="dominant-baseline: middle; font-size: 10.2px;" transform="translate(107.3359375,35)" y="0" x="0" id="text-entity-PHOTOS-84257347-2ca4-548a-a417-2c97f096a4a0-attr-1-key" class="er entityLabel">PK</text><rect height="22" width="46.140625" y="46" x="0" class="er attributeBoxEven"></rect><text style="dominant-baseline: middle; font-size: 10.2px;" transform="translate(5,57)" y="0" x="0" id="text-entity-PHOTOS-84257347-2ca4-548a-a417-2c97f096a4a0-attr-2-type" class="er entityLabel">uuid</text><rect height="22" width="56.1953125" y="46" x="46.140625" class="er attributeBoxEven"></rect><text style="dominant-baseline: middle; font-size: 10.2px;" transform="translate(51.140625,57)" y="0" x="0" id="text-entity-PHOTOS-84257347-2ca4-548a-a417-2c97f096a4a0-attr-2-name" class="er entityLabel">gallery_id</text><rect height="22" width="21.5625" y="46" x="102.3359375" class="er attributeBoxEven"></rect><text style="dominant-baseline: middle; font-size: 10.2px;" transform="translate(107.3359375,57)" y="0" x="0" id="text-entity-PHOTOS-84257347-2ca4-548a-a417-2c97f096a4a0-attr-2-key" class="er entityLabel">FK</text><rect height="22" width="46.140625" y="68" x="0" class="er attributeBoxOdd"></rect><text style="dominant-baseline: middle; font-size: 10.2px;" transform="translate(5,79)" y="0" x="0" id="text-entity-PHOTOS-84257347-2ca4-548a-a417-2c97f096a4a0-attr-3-type" class="er entityLabel">text</text><rect height="22" width="56.1953125" y="68" x="46.140625" class="er attributeBoxOdd"></rect><text style="dominant-baseline: middle; font-size: 10.2px;" transform="translate(51.140625,79)" y="0" x="0" id="text-entity-PHOTOS-84257347-2ca4-548a-a417-2c97f096a4a0-attr-3-name" class="er entityLabel">url</text><rect height="22" width="21.5625" y="68" x="102.3359375" class="er attributeBoxOdd"></rect><text style="dominant-baseline: middle; font-size: 10.2px;" transform="translate(107.3359375,79)" y="0" x="0" id="text-entity-PHOTOS-84257347-2ca4-548a-a417-2c97f096a4a0-attr-3-key" class="er entityLabel"></text><rect height="22" width="46.140625" y="90" x="0" class="er attributeBoxEven"></rect><text style="dominant-baseline: middle; font-size: 10.2px;" transform="translate(5,101)" y="0" x="0" id="text-entity-PHOTOS-84257347-2ca4-548a-a417-2c97f096a4a0-attr-4-type" class="er entityLabel">text</text><rect height="22" width="56.1953125" y="90" x="46.140625" class="er attributeBoxEven"></rect><text style="dominant-baseline: middle; font-size: 10.2px;" transform="translate(51.140625,101)" y="0" x="0" id="text-entity-PHOTOS-84257347-2ca4-548a-a417-2c97f096a4a0-attr-4-name" class="er entityLabel">thumbnail</text><rect height="22" width="21.5625" y="90" x="102.3359375" class="er attributeBoxEven"></rect><text style="dominant-baseline: middle; font-size: 10.2px;" transform="translate(107.3359375,101)" y="0" x="0" id="text-entity-PHOTOS-84257347-2ca4-548a-a417-2c97f096a4a0-attr-4-key" class="er entityLabel"></text><rect height="22" width="46.140625" y="112" x="0" class="er attributeBoxOdd"></rect><text style="dominant-baseline: middle; font-size: 10.2px;" transform="translate(5,123)" y="0" x="0" id="text-entity-PHOTOS-84257347-2ca4-548a-a417-2c97f096a4a0-attr-5-type" class="er entityLabel">boolean</text><rect height="22" width="56.1953125" y="112" x="46.140625" class="er attributeBoxOdd"></rect><text style="dominant-baseline: middle; font-size: 10.2px;" transform="translate(51.140625,123)" y="0" x="0" id="text-entity-PHOTOS-84257347-2ca4-548a-a417-2c97f096a4a0-attr-5-name" class="er entityLabel">favorite</text><rect height="22" width="21.5625" y="112" x="102.3359375" class="er attributeBoxOdd"></rect><text style="dominant-baseline: middle; font-size: 10.2px;" transform="translate(107.3359375,123)" y="0" x="0" id="text-entity-PHOTOS-84257347-2ca4-548a-a417-2c97f096a4a0-attr-5-key" class="er entityLabel"></text></g><g transform="translate(263.25,42 )" id="entity-FACES-ac4fca3b-3f23-5e18-80a3-921896799190"><rect height="90" width="122.0078125" y="0" x="0" class="er entityBox"></rect><text style="dominant-baseline: middle; text-anchor: middle; font-size: 12px;" transform="translate(61.00390625,12)" y="0" x="0" id="text-entity-FACES-ac4fca3b-3f23-5e18-80a3-921896799190" class="er entityLabel">FACES</text><rect height="22" width="29.7421875" y="24" x="0" class="er attributeBoxOdd"></rect><text style="dominant-baseline: middle; font-size: 10.2px;" transform="translate(5,35)" y="0" x="0" id="text-entity-FACES-ac4fca3b-3f23-5e18-80a3-921896799190-attr-1-type" class="er entityLabel">uuid</text><rect height="22" width="70.703125" y="24" x="29.7421875" class="er attributeBoxOdd"></rect><text style="dominant-baseline: middle; font-size: 10.2px;" transform="translate(34.7421875,35)" y="0" x="0" id="text-entity-FACES-ac4fca3b-3f23-5e18-80a3-921896799190-attr-1-name" class="er entityLabel">id</text><rect height="22" width="21.5625" y="24" x="100.4453125" class="er attributeBoxOdd"></rect><text style="dominant-baseline: middle; font-size: 10.2px;" transform="translate(105.4453125,35)" y="0" x="0" id="text-entity-FACES-ac4fca3b-3f23-5e18-80a3-921896799190-attr-1-key" class="er entityLabel">PK</text><rect height="22" width="29.7421875" y="46" x="0" class="er attributeBoxEven"></rect><text style="dominant-baseline: middle; font-size: 10.2px;" transform="translate(5,57)" y="0" x="0" id="text-entity-FACES-ac4fca3b-3f23-5e18-80a3-921896799190-attr-2-type" class="er entityLabel">uuid</text><rect height="22" width="70.703125" y="46" x="29.7421875" class="er attributeBoxEven"></rect><text style="dominant-baseline: middle; font-size: 10.2px;" transform="translate(34.7421875,57)" y="0" x="0" id="text-entity-FACES-ac4fca3b-3f23-5e18-80a3-921896799190-attr-2-name" class="er entityLabel">photo_id</text><rect height="22" width="21.5625" y="46" x="100.4453125" class="er attributeBoxEven"></rect><text style="dominant-baseline: middle; font-size: 10.2px;" transform="translate(105.4453125,57)" y="0" x="0" id="text-entity-FACES-ac4fca3b-3f23-5e18-80a3-921896799190-attr-2-key" class="er entityLabel">FK</text><rect height="22" width="29.7421875" y="68" x="0" class="er attributeBoxOdd"></rect><text style="dominant-baseline: middle; font-size: 10.2px;" transform="translate(5,79)" y="0" x="0" id="text-entity-FACES-ac4fca3b-3f23-5e18-80a3-921896799190-attr-3-type" class="er entityLabel">text</text><rect height="22" width="70.703125" y="68" x="29.7421875" class="er attributeBoxOdd"></rect><text style="dominant-baseline: middle; font-size: 10.2px;" transform="translate(34.7421875,79)" y="0" x="0" id="text-entity-FACES-ac4fca3b-3f23-5e18-80a3-921896799190-attr-3-name" class="er entityLabel">person_name</text><rect height="22" width="21.5625" y="68" x="100.4453125" class="er attributeBoxOdd"></rect><text style="dominant-baseline: middle; font-size: 10.2px;" transform="translate(105.4453125,79)" y="0" x="0" id="text-entity-FACES-ac4fca3b-3f23-5e18-80a3-921896799190-attr-3-key" class="er entityLabel"></text></g><g transform="translate(497.875,31 )" id="entity-RECOGNIZEDPEOPLE-899f1496-1fc9-515a-bfb6-4dc7ec90fddc"><rect height="112" width="151.421875" y="0" x="0" class="er entityBox"></rect><text style="dominant-baseline: middle; text-anchor: middle; font-size: 12px;" transform="translate(75.7109375,12)" y="0" x="0" id="text-entity-RECOGNIZEDPEOPLE-899f1496-1fc9-515a-bfb6-4dc7ec90fddc" class="er entityLabel">RECOGNIZED_PEOPLE</text><rect height="22" width="29.7421875" y="24" x="0" class="er attributeBoxOdd"></rect><text style="dominant-baseline: middle; font-size: 10.2px;" transform="translate(5,35)" y="0" x="0" id="text-entity-RECOGNIZEDPEOPLE-899f1496-1fc9-515a-bfb6-4dc7ec90fddc-attr-1-type" class="er entityLabel">uuid</text><rect height="22" width="100.1171875" y="24" x="29.7421875" class="er attributeBoxOdd"></rect><text style="dominant-baseline: middle; font-size: 10.2px;" transform="translate(34.7421875,35)" y="0" x="0" id="text-entity-RECOGNIZEDPEOPLE-899f1496-1fc9-515a-bfb6-4dc7ec90fddc-attr-1-name" class="er entityLabel">id</text><rect height="22" width="21.5625" y="24" x="129.859375" class="er attributeBoxOdd"></rect><text style="dominant-baseline: middle; font-size: 10.2px;" transform="translate(134.859375,35)" y="0" x="0" id="text-entity-RECOGNIZEDPEOPLE-899f1496-1fc9-515a-bfb6-4dc7ec90fddc-attr-1-key" class="er entityLabel">PK</text><rect height="22" width="29.7421875" y="46" x="0" class="er attributeBoxEven"></rect><text style="dominant-baseline: middle; font-size: 10.2px;" transform="translate(5,57)" y="0" x="0" id="text-entity-RECOGNIZEDPEOPLE-899f1496-1fc9-515a-bfb6-4dc7ec90fddc-attr-2-type" class="er entityLabel">uuid</text><rect height="22" width="100.1171875" y="46" x="29.7421875" class="er attributeBoxEven"></rect><text style="dominant-baseline: middle; font-size: 10.2px;" transform="translate(34.7421875,57)" y="0" x="0" id="text-entity-RECOGNIZEDPEOPLE-899f1496-1fc9-515a-bfb6-4dc7ec90fddc-attr-2-name" class="er entityLabel">gallery_id</text><rect height="22" width="21.5625" y="46" x="129.859375" class="er attributeBoxEven"></rect><text style="dominant-baseline: middle; font-size: 10.2px;" transform="translate(134.859375,57)" y="0" x="0" id="text-entity-RECOGNIZEDPEOPLE-899f1496-1fc9-515a-bfb6-4dc7ec90fddc-attr-2-key" class="er entityLabel">FK</text><rect height="22" width="29.7421875" y="68" x="0" class="er attributeBoxOdd"></rect><text style="dominant-baseline: middle; font-size: 10.2px;" transform="translate(5,79)" y="0" x="0" id="text-entity-RECOGNIZEDPEOPLE-899f1496-1fc9-515a-bfb6-4dc7ec90fddc-attr-3-type" class="er entityLabel">uuid</text><rect height="22" width="100.1171875" y="68" x="29.7421875" class="er attributeBoxOdd"></rect><text style="dominant-baseline: middle; font-size: 10.2px;" transform="translate(34.7421875,79)" y="0" x="0" id="text-entity-RECOGNIZEDPEOPLE-899f1496-1fc9-515a-bfb6-4dc7ec90fddc-attr-3-name" class="er entityLabel">reference_photo_id</text><rect height="22" width="21.5625" y="68" x="129.859375" class="er attributeBoxOdd"></rect><text style="dominant-baseline: middle; font-size: 10.2px;" transform="translate(134.859375,79)" y="0" x="0" id="text-entity-RECOGNIZEDPEOPLE-899f1496-1fc9-515a-bfb6-4dc7ec90fddc-attr-3-key" class="er entityLabel">FK</text><rect height="22" width="29.7421875" y="90" x="0" class="er attributeBoxEven"></rect><text style="dominant-baseline: middle; font-size: 10.2px;" transform="translate(5,101)" y="0" x="0" id="text-entity-RECOGNIZEDPEOPLE-899f1496-1fc9-515a-bfb6-4dc7ec90fddc-attr-4-type" class="er entityLabel">text</text><rect height="22" width="100.1171875" y="90" x="29.7421875" class="er attributeBoxEven"></rect><text style="dominant-baseline: middle; font-size: 10.2px;" transform="translate(34.7421875,101)" y="0" x="0" id="text-entity-RECOGNIZEDPEOPLE-899f1496-1fc9-515a-bfb6-4dc7ec90fddc-attr-4-name" class="er entityLabel">name</text><rect height="22" width="21.5625" y="90" x="129.859375" class="er attributeBoxEven"></rect><text style="dominant-baseline: middle; font-size: 10.2px;" transform="translate(134.859375,101)" y="0" x="0" id="text-entity-RECOGNIZEDPEOPLE-899f1496-1fc9-515a-bfb6-4dc7ec90fddc-attr-4-key" class="er entityLabel"></text></g><rect height="14" width="63.2265625" y="197" x="60.01171875" class="er relationshipLabelBox"></rect><text style="text-anchor: middle; dominant-baseline: middle; font-size: 12px;" y="204" x="91.625" id="rel29" class="er relationshipLabel">portfolio_id</text><rect height="14" width="52.9375" y="483.62872314453125" x="351.4335021972656" class="er relationshipLabelBox"></rect><text style="text-anchor: middle; dominant-baseline: middle; font-size: 12px;" y="490.62872314453125" x="377.9022521972656" id="rel30" class="er relationshipLabel">gallery_id</text><rect height="14" width="47.28125" y="203.92617797851562" x="306.1871032714844" class="er relationshipLabelBox"></rect><text style="text-anchor: middle; dominant-baseline: middle; font-size: 12px;" y="210.92617797851562" x="329.8277282714844" id="rel31" class="er relationshipLabel">photo_id</text><rect height="14" width="52.9375" y="371.77764892578125" x="597.0401611328125" class="er relationshipLabelBox"></rect><text style="text-anchor: middle; dominant-baseline: middle; font-size: 12px;" y="378.77764892578125" x="623.5089111328125" id="rel32" class="er relationshipLabel">gallery_id</text><rect height="14" width="106.015625" y="209.06654357910156" x="429.3985595703125" class="er relationshipLabelBox"></rect><text style="text-anchor: middle; dominant-baseline: middle; font-size: 12px;" y="216.06654357910156" x="482.4063720703125" id="rel33" class="er relationshipLabel">reference_photo_id</text><text class="entityTitleText" y="-25" x="334.98883056640625" text-anchor="middle">🎨 3️⃣ Portfolio &amp; Media Domain</text></svg>