<?xml version="1.0" encoding="UTF-8"?>
<?xml-stylesheet href="https://cdnjs.cloudflare.com/ajax/libs/font-awesome/6.5.1/css/all.min.css" type="text/css"?>
<svg aria-roledescription="er" role="graphics-document document" viewBox="0 -62 643.125 426" style="max-width: 100%; max-height: 100%; background: white; color: rgb(51, 51, 51);" xmlns="http://www.w3.org/2000/svg" width="100%" id="mermaid-image-editor"><style>#mermaid-image-editor{font-family:"trebuchet ms",verdana,arial,sans-serif;font-size:16px;fill:#333;}#mermaid-image-editor .error-icon{fill:#552222;}#mermaid-image-editor .error-text{fill:#552222;stroke:#552222;}#mermaid-image-editor .edge-thickness-normal{stroke-width:1px;}#mermaid-image-editor .edge-thickness-thick{stroke-width:3.5px;}#mermaid-image-editor .edge-pattern-solid{stroke-dasharray:0;}#mermaid-image-editor .edge-thickness-invisible{stroke-width:0;fill:none;}#mermaid-image-editor .edge-pattern-dashed{stroke-dasharray:3;}#mermaid-image-editor .edge-pattern-dotted{stroke-dasharray:2;}#mermaid-image-editor .marker{fill:#333333;stroke:#333333;}#mermaid-image-editor .marker.cross{stroke:#333333;}#mermaid-image-editor svg{font-family:"trebuchet ms",verdana,arial,sans-serif;font-size:16px;}#mermaid-image-editor p{margin:0;}#mermaid-image-editor .entityBox{fill:#ECECFF;stroke:#9370DB;}#mermaid-image-editor .attributeBoxOdd{fill:#ffffff;stroke:#9370DB;}#mermaid-image-editor .attributeBoxEven{fill:#f2f2f2;stroke:#9370DB;}#mermaid-image-editor .relationshipLabelBox{fill:hsl(80, 100%, 96.2745098039%);opacity:0.7;background-color:hsl(80, 100%, 96.2745098039%);}#mermaid-image-editor .relationshipLabelBox rect{opacity:0.5;}#mermaid-image-editor .relationshipLine{stroke:#333333;}#mermaid-image-editor .entityTitleText{text-anchor:middle;font-size:18px;fill:#333;}#mermaid-image-editor #MD_PARENT_START{fill:#f5f5f5!important;stroke:#333333!important;stroke-width:1;}#mermaid-image-editor #MD_PARENT_END{fill:#f5f5f5!important;stroke:#333333!important;stroke-width:1;}#mermaid-image-editor :root{--mermaid-font-family:"trebuchet ms",verdana,arial,sans-serif;}</style><g></g><defs><marker orient="auto" markerHeight="240" markerWidth="190" refY="7" refX="0" id="MD_PARENT_START"><path d="M 18,7 L9,13 L1,7 L9,1 Z"></path></marker></defs><defs><marker orient="auto" markerHeight="28" markerWidth="20" refY="7" refX="19" id="MD_PARENT_END"><path d="M 18,7 L9,13 L1,7 L9,1 Z"></path></marker></defs><defs><marker orient="auto" markerHeight="18" markerWidth="18" refY="9" refX="0" id="ONLY_ONE_START"><path d="M9,0 L9,18 M15,0 L15,18" fill="none" stroke="gray"></path></marker></defs><defs><marker orient="auto" markerHeight="18" markerWidth="18" refY="9" refX="18" id="ONLY_ONE_END"><path d="M3,0 L3,18 M9,0 L9,18" fill="none" stroke="gray"></path></marker></defs><defs><marker orient="auto" markerHeight="18" markerWidth="30" refY="9" refX="0" id="ZERO_OR_ONE_START"><circle r="6" cy="9" cx="21" fill="white" stroke="gray"></circle><path d="M9,0 L9,18" fill="none" stroke="gray"></path></marker></defs><defs><marker orient="auto" markerHeight="18" markerWidth="30" refY="9" refX="30" id="ZERO_OR_ONE_END"><circle r="6" cy="9" cx="9" fill="white" stroke="gray"></circle><path d="M21,0 L21,18" fill="none" stroke="gray"></path></marker></defs><defs><marker orient="auto" markerHeight="36" markerWidth="45" refY="18" refX="18" id="ONE_OR_MORE_START"><path d="M0,18 Q 18,0 36,18 Q 18,36 0,18 M42,9 L42,27" fill="none" stroke="gray"></path></marker></defs><defs><marker orient="auto" markerHeight="36" markerWidth="45" refY="18" refX="27" id="ONE_OR_MORE_END"><path d="M3,9 L3,27 M9,18 Q27,0 45,18 Q27,36 9,18" fill="none" stroke="gray"></path></marker></defs><defs><marker orient="auto" markerHeight="36" markerWidth="57" refY="18" refX="18" id="ZERO_OR_MORE_START"><circle r="6" cy="18" cx="48" fill="white" stroke="gray"></circle><path d="M0,18 Q18,0 36,18 Q18,36 0,18" fill="none" stroke="gray"></path></marker></defs><defs><marker orient="auto" markerHeight="36" markerWidth="57" refY="18" refX="39" id="ZERO_OR_MORE_END"><circle r="6" cy="18" cx="9" fill="white" stroke="gray"></circle><path d="M21,18 Q39,0 57,18 Q39,36 21,18" fill="none" stroke="gray"></path></marker></defs><path style="stroke: gray; fill: none;" marker-start="url(#ZERO_OR_MORE_START)" marker-end="url(#ONLY_ONE_END)" d="M303.294,121L292.734,131.167C282.174,141.333,261.054,161.667,241.687,180.167C222.321,198.667,204.709,215.333,195.902,223.667L187.096,232" class="er relationshipLine"></path><path style="stroke: gray; fill: none;" marker-start="url(#ZERO_OR_MORE_START)" marker-end="url(#ONLY_ONE_END)" d="M371.262,121L376.057,131.167C380.853,141.333,390.444,161.667,395.24,180.167C400.035,198.667,400.035,215.333,400.035,223.667L400.035,232" class="er relationshipLine"></path><path style="stroke: gray; fill: none;" marker-start="url(#ZERO_OR_MORE_START)" marker-end="url(#ONLY_ONE_END)" d="M77.918,132L77.918,140.333C77.918,148.667,77.918,165.333,81.849,182C85.78,198.667,93.641,215.333,97.572,223.667L101.503,232" class="er relationshipLine"></path><g transform="translate(58.0078125,232 )" id="entity-ROLES-f9f06ada-961b-52c6-afb8-7718b058ae5c"><rect height="112" width="139.8203125" y="0" x="0" class="er entityBox"></rect><text style="dominant-baseline: middle; text-anchor: middle; font-size: 12px;" transform="translate(69.91015625,12)" y="0" x="0" id="text-entity-ROLES-f9f06ada-961b-52c6-afb8-7718b058ae5c" class="er entityLabel">ROLES</text><rect height="22" width="46.140625" y="24" x="0" class="er attributeBoxOdd"></rect><text style="dominant-baseline: middle; font-size: 10.2px;" transform="translate(5,35)" y="0" x="0" id="text-entity-ROLES-f9f06ada-961b-52c6-afb8-7718b058ae5c-attr-1-type" class="er entityLabel">uuid</text><rect height="22" width="72.1171875" y="24" x="46.140625" class="er attributeBoxOdd"></rect><text style="dominant-baseline: middle; font-size: 10.2px;" transform="translate(51.140625,35)" y="0" x="0" id="text-entity-ROLES-f9f06ada-961b-52c6-afb8-7718b058ae5c-attr-1-name" class="er entityLabel">id</text><rect height="22" width="21.5625" y="24" x="118.2578125" class="er attributeBoxOdd"></rect><text style="dominant-baseline: middle; font-size: 10.2px;" transform="translate(123.2578125,35)" y="0" x="0" id="text-entity-ROLES-f9f06ada-961b-52c6-afb8-7718b058ae5c-attr-1-key" class="er entityLabel">PK</text><rect height="22" width="46.140625" y="46" x="0" class="er attributeBoxEven"></rect><text style="dominant-baseline: middle; font-size: 10.2px;" transform="translate(5,57)" y="0" x="0" id="text-entity-ROLES-f9f06ada-961b-52c6-afb8-7718b058ae5c-attr-2-type" class="er entityLabel">text</text><rect height="22" width="72.1171875" y="46" x="46.140625" class="er attributeBoxEven"></rect><text style="dominant-baseline: middle; font-size: 10.2px;" transform="translate(51.140625,57)" y="0" x="0" id="text-entity-ROLES-f9f06ada-961b-52c6-afb8-7718b058ae5c-attr-2-name" class="er entityLabel">name</text><rect height="22" width="21.5625" y="46" x="118.2578125" class="er attributeBoxEven"></rect><text style="dominant-baseline: middle; font-size: 10.2px;" transform="translate(123.2578125,57)" y="0" x="0" id="text-entity-ROLES-f9f06ada-961b-52c6-afb8-7718b058ae5c-attr-2-key" class="er entityLabel"></text><rect height="22" width="46.140625" y="68" x="0" class="er attributeBoxOdd"></rect><text style="dominant-baseline: middle; font-size: 10.2px;" transform="translate(5,79)" y="0" x="0" id="text-entity-ROLES-f9f06ada-961b-52c6-afb8-7718b058ae5c-attr-3-type" class="er entityLabel">text</text><rect height="22" width="72.1171875" y="68" x="46.140625" class="er attributeBoxOdd"></rect><text style="dominant-baseline: middle; font-size: 10.2px;" transform="translate(51.140625,79)" y="0" x="0" id="text-entity-ROLES-f9f06ada-961b-52c6-afb8-7718b058ae5c-attr-3-name" class="er entityLabel">display_name</text><rect height="22" width="21.5625" y="68" x="118.2578125" class="er attributeBoxOdd"></rect><text style="dominant-baseline: middle; font-size: 10.2px;" transform="translate(123.2578125,79)" y="0" x="0" id="text-entity-ROLES-f9f06ada-961b-52c6-afb8-7718b058ae5c-attr-3-key" class="er entityLabel"></text><rect height="22" width="46.140625" y="90" x="0" class="er attributeBoxEven"></rect><text style="dominant-baseline: middle; font-size: 10.2px;" transform="translate(5,101)" y="0" x="0" id="text-entity-ROLES-f9f06ada-961b-52c6-afb8-7718b058ae5c-attr-4-type" class="er entityLabel">boolean</text><rect height="22" width="72.1171875" y="90" x="46.140625" class="er attributeBoxEven"></rect><text style="dominant-baseline: middle; font-size: 10.2px;" transform="translate(51.140625,101)" y="0" x="0" id="text-entity-ROLES-f9f06ada-961b-52c6-afb8-7718b058ae5c-attr-4-name" class="er entityLabel">is_active</text><rect height="22" width="21.5625" y="90" x="118.2578125" class="er attributeBoxEven"></rect><text style="dominant-baseline: middle; font-size: 10.2px;" transform="translate(123.2578125,101)" y="0" x="0" id="text-entity-ROLES-f9f06ada-961b-52c6-afb8-7718b058ae5c-attr-4-key" class="er entityLabel"></text></g><g transform="translate(349.7421875,232 )" id="entity-PERMISSIONS-a2374d88-6d49-5b14-9399-2cfb07676094"><rect height="112" width="100.5859375" y="0" x="0" class="er entityBox"></rect><text style="dominant-baseline: middle; text-anchor: middle; font-size: 12px;" transform="translate(50.29296875,12)" y="0" x="0" id="text-entity-PERMISSIONS-a2374d88-6d49-5b14-9399-2cfb07676094" class="er entityLabel">PERMISSIONS</text><rect height="22" width="29.7421875" y="24" x="0" class="er attributeBoxOdd"></rect><text style="dominant-baseline: middle; font-size: 10.2px;" transform="translate(5,35)" y="0" x="0" id="text-entity-PERMISSIONS-a2374d88-6d49-5b14-9399-2cfb07676094-attr-1-type" class="er entityLabel">uuid</text><rect height="22" width="49.28125" y="24" x="29.7421875" class="er attributeBoxOdd"></rect><text style="dominant-baseline: middle; font-size: 10.2px;" transform="translate(34.7421875,35)" y="0" x="0" id="text-entity-PERMISSIONS-a2374d88-6d49-5b14-9399-2cfb07676094-attr-1-name" class="er entityLabel">id</text><rect height="22" width="21.5625" y="24" x="79.0234375" class="er attributeBoxOdd"></rect><text style="dominant-baseline: middle; font-size: 10.2px;" transform="translate(84.0234375,35)" y="0" x="0" id="text-entity-PERMISSIONS-a2374d88-6d49-5b14-9399-2cfb07676094-attr-1-key" class="er entityLabel">PK</text><rect height="22" width="29.7421875" y="46" x="0" class="er attributeBoxEven"></rect><text style="dominant-baseline: middle; font-size: 10.2px;" transform="translate(5,57)" y="0" x="0" id="text-entity-PERMISSIONS-a2374d88-6d49-5b14-9399-2cfb07676094-attr-2-type" class="er entityLabel">text</text><rect height="22" width="49.28125" y="46" x="29.7421875" class="er attributeBoxEven"></rect><text style="dominant-baseline: middle; font-size: 10.2px;" transform="translate(34.7421875,57)" y="0" x="0" id="text-entity-PERMISSIONS-a2374d88-6d49-5b14-9399-2cfb07676094-attr-2-name" class="er entityLabel">name</text><rect height="22" width="21.5625" y="46" x="79.0234375" class="er attributeBoxEven"></rect><text style="dominant-baseline: middle; font-size: 10.2px;" transform="translate(84.0234375,57)" y="0" x="0" id="text-entity-PERMISSIONS-a2374d88-6d49-5b14-9399-2cfb07676094-attr-2-key" class="er entityLabel"></text><rect height="22" width="29.7421875" y="68" x="0" class="er attributeBoxOdd"></rect><text style="dominant-baseline: middle; font-size: 10.2px;" transform="translate(5,79)" y="0" x="0" id="text-entity-PERMISSIONS-a2374d88-6d49-5b14-9399-2cfb07676094-attr-3-type" class="er entityLabel">text</text><rect height="22" width="49.28125" y="68" x="29.7421875" class="er attributeBoxOdd"></rect><text style="dominant-baseline: middle; font-size: 10.2px;" transform="translate(34.7421875,79)" y="0" x="0" id="text-entity-PERMISSIONS-a2374d88-6d49-5b14-9399-2cfb07676094-attr-3-name" class="er entityLabel">resource</text><rect height="22" width="21.5625" y="68" x="79.0234375" class="er attributeBoxOdd"></rect><text style="dominant-baseline: middle; font-size: 10.2px;" transform="translate(84.0234375,79)" y="0" x="0" id="text-entity-PERMISSIONS-a2374d88-6d49-5b14-9399-2cfb07676094-attr-3-key" class="er entityLabel"></text><rect height="22" width="29.7421875" y="90" x="0" class="er attributeBoxEven"></rect><text style="dominant-baseline: middle; font-size: 10.2px;" transform="translate(5,101)" y="0" x="0" id="text-entity-PERMISSIONS-a2374d88-6d49-5b14-9399-2cfb07676094-attr-4-type" class="er entityLabel">text</text><rect height="22" width="49.28125" y="90" x="29.7421875" class="er attributeBoxEven"></rect><text style="dominant-baseline: middle; font-size: 10.2px;" transform="translate(34.7421875,101)" y="0" x="0" id="text-entity-PERMISSIONS-a2374d88-6d49-5b14-9399-2cfb07676094-attr-4-name" class="er entityLabel">action</text><rect height="22" width="21.5625" y="90" x="79.0234375" class="er attributeBoxEven"></rect><text style="dominant-baseline: middle; font-size: 10.2px;" transform="translate(84.0234375,101)" y="0" x="0" id="text-entity-PERMISSIONS-a2374d88-6d49-5b14-9399-2cfb07676094-attr-4-key" class="er entityLabel"></text></g><g transform="translate(283.921875,31 )" id="entity-ROLEPERMISSIONS-2450130d-86de-5ccb-8838-922146240e3b"><rect height="90" width="132.2265625" y="0" x="0" class="er entityBox"></rect><text style="dominant-baseline: middle; text-anchor: middle; font-size: 12px;" transform="translate(66.11328125,12)" y="0" x="0" id="text-entity-ROLEPERMISSIONS-2450130d-86de-5ccb-8838-922146240e3b" class="er entityLabel">ROLE_PERMISSIONS</text><rect height="22" width="32.46875" y="24" x="0" class="er attributeBoxOdd"></rect><text style="dominant-baseline: middle; font-size: 10.2px;" transform="translate(5,35)" y="0" x="0" id="text-entity-ROLEPERMISSIONS-2450130d-86de-5ccb-8838-922146240e3b-attr-1-type" class="er entityLabel">uuid</text><rect height="22" width="75.46875" y="24" x="32.46875" class="er attributeBoxOdd"></rect><text style="dominant-baseline: middle; font-size: 10.2px;" transform="translate(37.46875,35)" y="0" x="0" id="text-entity-ROLEPERMISSIONS-2450130d-86de-5ccb-8838-922146240e3b-attr-1-name" class="er entityLabel">id</text><rect height="22" width="24.2890625" y="24" x="107.9375" class="er attributeBoxOdd"></rect><text style="dominant-baseline: middle; font-size: 10.2px;" transform="translate(112.9375,35)" y="0" x="0" id="text-entity-ROLEPERMISSIONS-2450130d-86de-5ccb-8838-922146240e3b-attr-1-key" class="er entityLabel">PK</text><rect height="22" width="32.46875" y="46" x="0" class="er attributeBoxEven"></rect><text style="dominant-baseline: middle; font-size: 10.2px;" transform="translate(5,57)" y="0" x="0" id="text-entity-ROLEPERMISSIONS-2450130d-86de-5ccb-8838-922146240e3b-attr-2-type" class="er entityLabel">uuid</text><rect height="22" width="75.46875" y="46" x="32.46875" class="er attributeBoxEven"></rect><text style="dominant-baseline: middle; font-size: 10.2px;" transform="translate(37.46875,57)" y="0" x="0" id="text-entity-ROLEPERMISSIONS-2450130d-86de-5ccb-8838-922146240e3b-attr-2-name" class="er entityLabel">role_id</text><rect height="22" width="24.2890625" y="46" x="107.9375" class="er attributeBoxEven"></rect><text style="dominant-baseline: middle; font-size: 10.2px;" transform="translate(112.9375,57)" y="0" x="0" id="text-entity-ROLEPERMISSIONS-2450130d-86de-5ccb-8838-922146240e3b-attr-2-key" class="er entityLabel">FK</text><rect height="22" width="32.46875" y="68" x="0" class="er attributeBoxOdd"></rect><text style="dominant-baseline: middle; font-size: 10.2px;" transform="translate(5,79)" y="0" x="0" id="text-entity-ROLEPERMISSIONS-2450130d-86de-5ccb-8838-922146240e3b-attr-3-type" class="er entityLabel">uuid</text><rect height="22" width="75.46875" y="68" x="32.46875" class="er attributeBoxOdd"></rect><text style="dominant-baseline: middle; font-size: 10.2px;" transform="translate(37.46875,79)" y="0" x="0" id="text-entity-ROLEPERMISSIONS-2450130d-86de-5ccb-8838-922146240e3b-attr-3-name" class="er entityLabel">permission_id</text><rect height="22" width="24.2890625" y="68" x="107.9375" class="er attributeBoxOdd"></rect><text style="dominant-baseline: middle; font-size: 10.2px;" transform="translate(112.9375,79)" y="0" x="0" id="text-entity-ROLEPERMISSIONS-2450130d-86de-5ccb-8838-922146240e3b-attr-3-key" class="er entityLabel">FK</text></g><g transform="translate(20,20 )" id="entity-USERROLES-4cb0b913-f42c-5a32-b89f-41ebad040880"><rect height="112" width="115.8359375" y="0" x="0" class="er entityBox"></rect><text style="dominant-baseline: middle; text-anchor: middle; font-size: 12px;" transform="translate(57.91796875,12)" y="0" x="0" id="text-entity-USERROLES-4cb0b913-f42c-5a32-b89f-41ebad040880" class="er entityLabel">USER_ROLES</text><rect height="22" width="29.7421875" y="24" x="0" class="er attributeBoxOdd"></rect><text style="dominant-baseline: middle; font-size: 10.2px;" transform="translate(5,35)" y="0" x="0" id="text-entity-USERROLES-4cb0b913-f42c-5a32-b89f-41ebad040880-attr-1-type" class="er entityLabel">uuid</text><rect height="22" width="64.53125" y="24" x="29.7421875" class="er attributeBoxOdd"></rect><text style="dominant-baseline: middle; font-size: 10.2px;" transform="translate(34.7421875,35)" y="0" x="0" id="text-entity-USERROLES-4cb0b913-f42c-5a32-b89f-41ebad040880-attr-1-name" class="er entityLabel">id</text><rect height="22" width="21.5625" y="24" x="94.2734375" class="er attributeBoxOdd"></rect><text style="dominant-baseline: middle; font-size: 10.2px;" transform="translate(99.2734375,35)" y="0" x="0" id="text-entity-USERROLES-4cb0b913-f42c-5a32-b89f-41ebad040880-attr-1-key" class="er entityLabel">PK</text><rect height="22" width="29.7421875" y="46" x="0" class="er attributeBoxEven"></rect><text style="dominant-baseline: middle; font-size: 10.2px;" transform="translate(5,57)" y="0" x="0" id="text-entity-USERROLES-4cb0b913-f42c-5a32-b89f-41ebad040880-attr-2-type" class="er entityLabel">uuid</text><rect height="22" width="64.53125" y="46" x="29.7421875" class="er attributeBoxEven"></rect><text style="dominant-baseline: middle; font-size: 10.2px;" transform="translate(34.7421875,57)" y="0" x="0" id="text-entity-USERROLES-4cb0b913-f42c-5a32-b89f-41ebad040880-attr-2-name" class="er entityLabel">user_id</text><rect height="22" width="21.5625" y="46" x="94.2734375" class="er attributeBoxEven"></rect><text style="dominant-baseline: middle; font-size: 10.2px;" transform="translate(99.2734375,57)" y="0" x="0" id="text-entity-USERROLES-4cb0b913-f42c-5a32-b89f-41ebad040880-attr-2-key" class="er entityLabel">FK</text><rect height="22" width="29.7421875" y="68" x="0" class="er attributeBoxOdd"></rect><text style="dominant-baseline: middle; font-size: 10.2px;" transform="translate(5,79)" y="0" x="0" id="text-entity-USERROLES-4cb0b913-f42c-5a32-b89f-41ebad040880-attr-3-type" class="er entityLabel">uuid</text><rect height="22" width="64.53125" y="68" x="29.7421875" class="er attributeBoxOdd"></rect><text style="dominant-baseline: middle; font-size: 10.2px;" transform="translate(34.7421875,79)" y="0" x="0" id="text-entity-USERROLES-4cb0b913-f42c-5a32-b89f-41ebad040880-attr-3-name" class="er entityLabel">role_id</text><rect height="22" width="21.5625" y="68" x="94.2734375" class="er attributeBoxOdd"></rect><text style="dominant-baseline: middle; font-size: 10.2px;" transform="translate(99.2734375,79)" y="0" x="0" id="text-entity-USERROLES-4cb0b913-f42c-5a32-b89f-41ebad040880-attr-3-key" class="er entityLabel">FK</text><rect height="22" width="29.7421875" y="90" x="0" class="er attributeBoxEven"></rect><text style="dominant-baseline: middle; font-size: 10.2px;" transform="translate(5,101)" y="0" x="0" id="text-entity-USERROLES-4cb0b913-f42c-5a32-b89f-41ebad040880-attr-4-type" class="er entityLabel">uuid</text><rect height="22" width="64.53125" y="90" x="29.7421875" class="er attributeBoxEven"></rect><text style="dominant-baseline: middle; font-size: 10.2px;" transform="translate(34.7421875,101)" y="0" x="0" id="text-entity-USERROLES-4cb0b913-f42c-5a32-b89f-41ebad040880-attr-4-name" class="er entityLabel">assigned_by</text><rect height="22" width="21.5625" y="90" x="94.2734375" class="er attributeBoxEven"></rect><text style="dominant-baseline: middle; font-size: 10.2px;" transform="translate(99.2734375,101)" y="0" x="0" id="text-entity-USERROLES-4cb0b913-f42c-5a32-b89f-41ebad040880-attr-4-key" class="er entityLabel">FK</text></g><g transform="translate(516.1484375,20 )" id="entity-PROFILES-18c4e1c0-0e98-55a5-af55-f9161b8bc2c7"><rect height="112" width="106.9765625" y="0" x="0" class="er entityBox"></rect><text style="dominant-baseline: middle; text-anchor: middle; font-size: 12px;" transform="translate(53.48828125,12)" y="0" x="0" id="text-entity-PROFILES-18c4e1c0-0e98-55a5-af55-f9161b8bc2c7" class="er entityLabel">PROFILES</text><rect height="22" width="29.7421875" y="24" x="0" class="er attributeBoxOdd"></rect><text style="dominant-baseline: middle; font-size: 10.2px;" transform="translate(5,35)" y="0" x="0" id="text-entity-PROFILES-18c4e1c0-0e98-55a5-af55-f9161b8bc2c7-attr-1-type" class="er entityLabel">uuid</text><rect height="22" width="55.671875" y="24" x="29.7421875" class="er attributeBoxOdd"></rect><text style="dominant-baseline: middle; font-size: 10.2px;" transform="translate(34.7421875,35)" y="0" x="0" id="text-entity-PROFILES-18c4e1c0-0e98-55a5-af55-f9161b8bc2c7-attr-1-name" class="er entityLabel">id</text><rect height="22" width="21.5625" y="24" x="85.4140625" class="er attributeBoxOdd"></rect><text style="dominant-baseline: middle; font-size: 10.2px;" transform="translate(90.4140625,35)" y="0" x="0" id="text-entity-PROFILES-18c4e1c0-0e98-55a5-af55-f9161b8bc2c7-attr-1-key" class="er entityLabel">PK</text><rect height="22" width="29.7421875" y="46" x="0" class="er attributeBoxEven"></rect><text style="dominant-baseline: middle; font-size: 10.2px;" transform="translate(5,57)" y="0" x="0" id="text-entity-PROFILES-18c4e1c0-0e98-55a5-af55-f9161b8bc2c7-attr-2-type" class="er entityLabel">text</text><rect height="22" width="55.671875" y="46" x="29.7421875" class="er attributeBoxEven"></rect><text style="dominant-baseline: middle; font-size: 10.2px;" transform="translate(34.7421875,57)" y="0" x="0" id="text-entity-PROFILES-18c4e1c0-0e98-55a5-af55-f9161b8bc2c7-attr-2-name" class="er entityLabel">email</text><rect height="22" width="21.5625" y="46" x="85.4140625" class="er attributeBoxEven"></rect><text style="dominant-baseline: middle; font-size: 10.2px;" transform="translate(90.4140625,57)" y="0" x="0" id="text-entity-PROFILES-18c4e1c0-0e98-55a5-af55-f9161b8bc2c7-attr-2-key" class="er entityLabel"></text><rect height="22" width="29.7421875" y="68" x="0" class="er attributeBoxOdd"></rect><text style="dominant-baseline: middle; font-size: 10.2px;" transform="translate(5,79)" y="0" x="0" id="text-entity-PROFILES-18c4e1c0-0e98-55a5-af55-f9161b8bc2c7-attr-3-type" class="er entityLabel">text</text><rect height="22" width="55.671875" y="68" x="29.7421875" class="er attributeBoxOdd"></rect><text style="dominant-baseline: middle; font-size: 10.2px;" transform="translate(34.7421875,79)" y="0" x="0" id="text-entity-PROFILES-18c4e1c0-0e98-55a5-af55-f9161b8bc2c7-attr-3-name" class="er entityLabel">full_name</text><rect height="22" width="21.5625" y="68" x="85.4140625" class="er attributeBoxOdd"></rect><text style="dominant-baseline: middle; font-size: 10.2px;" transform="translate(90.4140625,79)" y="0" x="0" id="text-entity-PROFILES-18c4e1c0-0e98-55a5-af55-f9161b8bc2c7-attr-3-key" class="er entityLabel"></text><rect height="22" width="29.7421875" y="90" x="0" class="er attributeBoxEven"></rect><text style="dominant-baseline: middle; font-size: 10.2px;" transform="translate(5,101)" y="0" x="0" id="text-entity-PROFILES-18c4e1c0-0e98-55a5-af55-f9161b8bc2c7-attr-4-type" class="er entityLabel">text</text><rect height="22" width="55.671875" y="90" x="29.7421875" class="er attributeBoxEven"></rect><text style="dominant-baseline: middle; font-size: 10.2px;" transform="translate(34.7421875,101)" y="0" x="0" id="text-entity-PROFILES-18c4e1c0-0e98-55a5-af55-f9161b8bc2c7-attr-4-name" class="er entityLabel">plan_type</text><rect height="22" width="21.5625" y="90" x="85.4140625" class="er attributeBoxEven"></rect><text style="dominant-baseline: middle; font-size: 10.2px;" transform="translate(90.4140625,101)" y="0" x="0" id="text-entity-PROFILES-18c4e1c0-0e98-55a5-af55-f9161b8bc2c7-attr-4-key" class="er entityLabel"></text></g><rect height="14" width="37.59375" y="169.66343688964844" x="226.55419921875" class="er relationshipLabelBox"></rect><text style="text-anchor: middle; dominant-baseline: middle; font-size: 12px;" y="176.66343688964844" x="245.35107421875" id="rel63" class="er relationshipLabel">role_id</text><rect height="14" width="73.8125" y="167.52915954589844" x="356.7471008300781" class="er relationshipLabelBox"></rect><text style="text-anchor: middle; dominant-baseline: middle; font-size: 12px;" y="174.52915954589844" x="393.6533508300781" id="rel64" class="er relationshipLabel">permission_id</text><rect height="14" width="37.59375" y="176.7233123779297" x="63.472511291503906" class="er relationshipLabelBox"></rect><text style="text-anchor: middle; dominant-baseline: middle; font-size: 12px;" y="183.7233123779297" x="82.2693862915039" id="rel65" class="er relationshipLabel">role_id</text><text class="entityTitleText" y="-25" x="321.5625" text-anchor="middle">🔐 6️⃣ Auth, Roles &amp; Access Control</text></svg>